<?xml version="1.0" encoding="utf-8"?><svg xmlns="http://www.w3.org/2000/svg" version="1.1" baseProfile="tiny" width="800" height="600" viewBox="0 0 800 600"><g><g stroke="#000000" stroke-width=".98" fill="#FFFFFF"><path d="m424.12 291.1l.09.06.35.22.31.2.73.35.99.28 3.94.4-.09-1.01-.19-2.05-.05-1.08-.02-.4-.12-2.21-.02-.45.23-.92.71-2.78.16-.6.13-.49.17-.64.9-2.47.15-.41.14-.37.05-.15.25-.41.65-1.08.6-.99.23-.38.28-.35.05-.06.32-.4.42-.52.24-.3.43-.54.34-.42 1.18-1.46.4-.38-1.3-.06-.62-.04-3.49-.22-.52-.05-1.64-.19-.56-.03-1.88-.13-.65-.02-.38-.01-.03.57-.04.48-.05.78-.07.67-.11.42-.31.41-.18.16-.12.1-.53.47-.74.65-.29.26-.49.4-1.6 1.28-.69.55-.9.72-.2.16-2.66 2.14-.43.34-.51.41-.81.67-.18.16-.68.51-.36.27-.49.24-.21.1-1.02.43-2.5 1.03-.64.16-1.2.15-1.19.01-.56 0-.76-.01-.09.75-.13.98 1.07.77 1.77.73.33.12.95.32.93.31.91.29.75.23.27.11 1.04.39.42.16.21.09.64.26.38.13.39.13 1.05.28 1.21.29.39.09.6.12.18.04.78.15 1.2.24.88.17.08.04.49.2.14.05.63.34.17.09z" /><path d="m144.35 329.86l-.51.01-1.95.12-.67.06-.43.07-1.29.23-.87.17-1.27.19-2.72.23-.25.04-.73.09-1.27.2-1.9.28-.52.03-.52 0-.83.12-2.95.55.18.41 2.17 4.31-3.45.88-.37.08-5.06 1.08-2.41.08-1.17-.18-3.34-.43-4.51-.58-2.67-.32-.41-.01-.02.2.14 1.49.25 2.36.24 2.36.24 2.38-.09.08-.07.07-.23.11-2.67.63-6.06 1.46-.16 0-1.93.48.2.31.97 3.27 1.15 3.89.07.02-.07.1.24.93.11 0 .03.09-.06 0 .86 2.98-3.63-.07-1.2-.03-.58-.08-2.8-.45-7.26-.22 2.95 3.58 2.32 2.79 2.4 4.87 1.76 2.11 2.26-.58-.16.31-2.18 4.31-1.78 3.86-1.48 3.13-.07.11-.06-.05-1.17 2.06-.04.03-.09-.07.02.08.28 2.96.34 3.27.44 1.89.1.25.27.44.15.2.18.19.3.18.36.12.35.08 3.82.49.64-.15 3.5-1.55 4.04 3.8.27.32 1.23 2.02.16.33.13.23.11.18.24.57.03.35-.16.56-.49 1.73-.57 1.75-.18.82.11.82.39.78 1.21 1.36 1.34 1.96.59 2.65-.05.34.02.6.02.64-.26 1.15-.22.3-.25.25-.84.77-1.13.9-3.01 2.21-.9.59-1.98 1.3-.27.25-.21.54-.28.73-.12.43-.06.45-.04.46.04.46.14.44.96 1.89.16.43.09.43-.15 2.46-.73 3.81-.48.9-.56.96-.06.37.14.4.29.57 1.02 1.34 1.21 1.66.71.95.97.77.01.21-.07.15-.3.22-.14.18-.08.23.01.09-.06.47.02.31.83-.62.66-.44 1.37-.8 1.38-.79.43-.23 1-.55.44-.22 1.06-.47.15 0 .52-.29.32-.14.55-.25.86-.35.75-.27 1.65-.57 1.7-.48 1.79-.46 2.43-.68 2.95-.81 3.34-.89 5.07-1.36 1.96-.58 1.31-.35-.03-.04 1.13-.29 0 .02.29-.06.5-.11.26-.08 1.75-.49 1.68-.53 1.15-.37 1.32-.48 1.02-.4 1.45-.64 1.55-.81.66-.39.12-.08.54-.35.95-.68.05-.04.03-.03.41.21.24.06.25.01 7.45-.24 4.82-.32-.02.12-.14 1.14.45.02 6.58-1.27 0-.68.04-.94-.51-.15-.42-.19-.49-.32-.1-.17-.13-.28-.12-.29.66-.27 2.53-1.24 10.54-5.18 1.22-.57.58-.23.56-.21.95-.32.94-.35 1.09-.42 4.17-1.72 2.05-.83.67-.25.28-.1-.45-.42 1.24-1.08 1.02-.87.51-.4 1.25-1.2 1.45-.74.8-.3.67-.32 1.5-.82 3.61-1.82 3.47-1.77.88-.38.25-.08 1.06-.37.61-.26.7-.34.62-.27.88-.33 1.76-.91.85-.45.36-.15 6.26-2.6-.66-1.22 1.4-.9 2.08-.61 2-.24 1.02-.2 1.3-.55.75-.31 2.31-1.67 2.07-1.53-.56-1.14-2.43-5.18-.73-1.61-.56-1.23-1.46-3.26-1.87-4.14-2.59-5.96-.58-1.31-.73-1.74-.23-.55-1.49-3.49-1.36-3.19-1.32-3.19-1.2-3.08-.31-.83-.56-1.49-.34-.92-1.29-3.68-1.69-5.14-.84-2.55-.84-2.53-.82-2.41-.26-.91-.03-.1-.35-.96-.63-1.84-1.47-.23-4.2-.66-2.09-.32-4.07-.64-1.15-.3-.26-.19-.82-.7-.51-.45-.5-.5-.42-.46-.38-.56-.38-.38-.21-.04-2.8.46-3.54.63-2.7.49-1.67.3-1.01.15.08.2-.37.07-2.43.41-1.53.28-1.48.26-2.2.39-1.4.12-1.1.12-.29.06-.63.11-1.27.31-2.17.49-2.04.45-1.67.33-.5-.74-.25-.5-1.08.18-5.17.94-2.77.34-1.45.15-1.3.16-1.27.14-1.1.14-1.42.14-.37 0z" /><path d="m566.51 407.6l.21-.13 3.9-2.14.91-.5.69.45 3.17 2.07.7.46 1.53.88 1.99 1.22 2.25 1.41 1.24.84.74.62 1.09 1.31 3 5 .33.55.16-.04.14-.09.03.05.61-.14.46-.15.61-.22.81-.41.44-.18.62-.19.93-.23.7-.13.62-.07.52-.05.37-.07.18-.04.26-.17.61-.19.41-.16 1.17-.49.25-.19.25-.49 1.87-1.36 1.24-.4.46-.43.19-.23.11-.39.38-.08.7.06.46.03.15.08.1.14-.02.09-.19.13-.21.08.02.13.3.24.13.02.28-.27.48-.23.23-.08.24-.18.53-.26.24-.07.39-.01.94-.23.27 0 .78-.13.75-.17.06-.07.1-.03.07-.05.29-.17.54-.3.56-.34.39-.27.21-.22.19-.23.16-.26-.14.46.24.03.06.01-.08.25-.11.26-.16.43-.27.78-.12.5-.07.47-.03.52.01.23.04.54.28-.01 2.95-.22 1.13-.07.38 2.54.21.02 1.49.18 1.86.04 3.23.06.69-1.87.16-.28.1-.06.18-.1.54-.14 5.62.75 3.74.51 13.48 1.8 4.86.66.86.08-.15-1.07-.36-1.99-.75-.52-.65-.28-.98-.4-.25-.19-.36-.34-.31-.46-.44-.69-.28-.54-.08-.57-.08-.45-.12-.26-.14-.11-.3-.23-.56-.28-.14-.09-.2-.06-1.18-.24-.28-.11-.26-.22-.37-.31-.33-.08-.93-.13-.48-.01-.46-.09-1.51-.39-.3-.19.04-.29-.47-.27-.38-.18-.6-.19-.72-.2-.39-.31-.74-.58-.14-.09-.71-.27-.93-.2-.95-.19-.86-.1-.04-.13.08-.14.13-.32.51-.49.24-.26.64-.69.32-.37.12-.14.09-.25-.11-.22-.2-.02-.19-.03-.72.03-1.67.08-1.38-.04.09-.8.17-.93.38-.99.85-1.59.63-.83.45-.68.43-.47.41-.44.88-.79 1.04-.76 1.08-1.02.29-.33.33-.38.55-.89.12-.21.27-.49.16-.78.08-.36-.02-.55-.1-.36-.26-.32.2-.46.1-.24-.45-1.67-.71-.16-.71-.17-.64-.12-.38-.04-.53.04-.7.07-.4.01-.28-.09-.29-.18-.13-.18-.06-.22-.02-.35-.16-.44-.17-.25-.21-.13-.26-.09-.32-.09-.25-.11-.16-.15-.2-.18-.29-.13-.38 0-.36.18-.2.25-.17.29-.11.13-.22.09-.3.06-.47 0-.38-.03-.16-.14-.11-.17-.15-.1-.17-.2-.05-.18.07-.07.15-.05.19-.07.24-.15.06-.17-.05-.2-.01-.28.1-.29.05-.27-.06-.17-.19-.17-.25-.08-.31-.01-.25.1-.17.2-.23.21-.28.18-.33.13-.43.05-.39-.02-.36-.1-.16-.11-.03-.2.09-.16.25-.11.36-.16.13-.1.03-.1-.05-.15-.26-.1-.58-.11-1.07-.14-1.79-.17 2.85-5.72.05-.11-1.32-.44-.54-.19-.45-.15-.68-.1-1.15-.11-.88-.04-1.25-.02-1.07-.03-.19-.06-.38-.26-1.24-1-.76-.64-.42-.38-.42-.32-.46-.21-.56-.12-.97-.26-.44-.08-.41-.21-.33-.23-.08-.14.04-.3-.02-.41-.11-.44-.26-.49-1.07-1.67-.29-.36-1.06-1.16-.21-.15-.1-.04-.21-.1-.45-.09-.88-.14-.22-.03-.62-.11-.73-.06-.28.02-.38-.49-.13-.29 0-.04-.03-.26.05-.59.01-.51.05-.35.07-.43-2.54-.21-2.36-.22-1.61-.14-1.59-.02-.64.02-.01.08-.83-.07-2.54-.21 2.17 1.8.45.33.74.53.12.34.1.27 0 .67-.44.9-.72 1.15-.19.31-.46.61-.29.38-.83.75-1.06.51-.52.25-1.71.59-1.46.56-1.42.81-.66.53-.02.02-2.05-.84-3.96-1.63-2.92-1.19-3.6-1.35-6.77-2.77-5.07-1.54-6.48-1.42-1.69-.37-5.22-1.17-2.5-.55-1.24-.28-3.02.73.16.29-1.19.3-3.37.86-.32-.25-2.01.5-1.07.27.12.18-.05.01-2.44.68-1.09.3-.18.05-1.74.48-1.79.5-.14.05-1.87.52-2.51.71 1.1 1.01.39.36.41.38.29.27 1.19 1.1.25.23.65.6 1.85 1.71.43.4.57.53.15.13 1.77 1.64 1.74 1.61.69.67.82.79 1.08.98-.61.17-1.14.18-.13.02-1.36.21-.77.11-1.37.2 0 .05-.04.56.16.76.3 1.38.01.06.02.09.32 1.38.32.94.14.34.05.19-.35.12-.17-.13-.39-.1-1.3.05-.32.01.76.67 3.48 3.06.22.2 1.35 1.19 3.35 2.95 3.29 2.89 3.67 3.51 2.55 1.96 1.09.76 2.2 1.53.63.44 2.33 1.6 2.92 2.01 3.34 2.27 1.06.75 3.8-2.13.28-.14z" /><path d="m418.75 247.38l.11-.2.33-.61.07-.12 1.52-2.8.16-.29.5-.94.27-.52.56-1.03.23-.43.48-.89-3.32-.72-.79-.15-.05-.01-.46-.08-.16-.04-2.47-.57-2.01-.46-1.22-.28-1.46-.34-.83-.18-1.39-.26-.48-.08-1.77-.32-.39-.05-1.57-.21-2.19-.28-2.96-.18-.79.01-2.02.02-2.79.03-1.85.06-.15 0-2.98.1-.41.01-.77.03-1.36.04-1.61.08-.78.03-.27.01-.96.05-2.65.12-2.91.13-1.25.06-.75.03-1.3.06-.15.01-1.61.07-.93.04-1.92.08.04.64.03.33.08 1.33.13 1.99.04 1.07.01.18.11 2.4.02.45.05 1.04.01.45.01.14 0 .28 0 .22.01.3 0 .29.01.4.01.68.01.75.35.76 2.38 1.78.99.74 1.75 1.3 1.24.89.24.17.32.23.37.18.38.18.13.06.08.04.87.35 1.53-.26 2.59-.21 1.1-.07.16-.01 1.38-.1 3.33-.11.67.02 1.8.07 1.65.14.58.05 1.71.23 2.14.28.6-.02 1.08-.15.24-.05 1.02-.17 1.63-.28.58-.09 2.57-.44 4.27-.68 2.36-.37.36-.06 1.38-.22.16-.02 1.03-.16.88-.14.29-.59.3-.6.03-.06.16-.36-.01-.16-.03-.12.09-.19.05-.1.59-1.02 1.29-2.14.23-.43.04-.06z" /><path d="m407.93 394.12l5.91 0 8.98-.59.11.35.09.55 1.26-.04 4.46-.12 1.22-.01.58-.01.37.07.47.08 7.52-.43 2.17-.13 3.6-.26.61-.13.98-.21 5.34-1.29 6.84-1.68 4.35-1.06 2.93-.61-2.83-5.5-1.4-2.72-2.29-4.47-1.66-2.87-1.68-2.89-2.83-4.87-.1-.17-1.09-1.99-2.04-3.72-.24-.44-.4-.67-.83-1.42-2.57-4.41-1.57-2.29-2.32-3.36-2.45-4.26-.35-.62-.78-1.35-1.27-3.59-.19-1.84-.09-.84-.24-2.4.33-1.83.22-1.15.24-.76-1.01.37-1.07.37-.75.32-.79.3-1.09.39-1.57.51-.47.13-.66.18-1.1.27-1.5.31-4.79.83-1.38 2.23-.6.74-.8.92-1.63 1.66-1.12.94-1.28 1.07-2.56 1.73-2.85 1.51-.34.15-2.27.99-1.94.83-.97.46-.61.29-2.15 1.11-1.94 1.01-3.44 2.05-1.79 1.07-1.7 1.02-1.86 1.12-3.36 2.09-.37.23-1.66 1.02-4.02 2.48-3.63 2.24-1.54.96-.86.54-1.34.83-.31.2-1.41.87-.63.39-1.82 1.12-.97.61-1.1.69-2.55 1.78-2.05 1.77-1.44 1.44-.32.36-1.24 1.42-1.34 1.84-.71 1.12-.19.45-.05.1-.94 1.95-.55 1.63-1.14 3.33-.1.34-.73 2.37-1.14 3.73 6.81.66 7.03.65 4.3.39 1.93.17 9.46.83 2.37.21 9.06.25 1.28.04 5.29.05 4.11-.05 2.54-.03z" /><path d="m358.85 339.83l.04-.11-2.19-.43-1.99-.46-.48-.09-2.24-.42-.3-.03.07-.08.47-.52-2.17-.67-.26-.09-.66-.17-.4-.15-.38-.17-.45-.28-.2-.21-.12-.23-.01-.2 0-.33-.02-.1.68-.45-.25-.17-.49.32-.43.27-1.05.82-1.41 1.08-1.25.97-1.16.97-.36.3-1.11.97-.26.26-.43.44-1.26 1.29-1.65 1.86-.55.61-.46.55-.97 1.15-.81 1.09-.35.47-1.01 1.48-.51.74-.99 1.51-1.15 1.75-.27.41-.11.2-.58 1-.68 1.19-.02.04-.77 1.36-.79 1.38-.07.13-.04.07-1.09 1.97-.7 1.24-.21.37-.23.38-1.49 2.53-.41.63 1.47.28 1.46.22 1.07.12.9.05 3.03.13 2.52.16.07-.26 1.05.13.72.09 3.19.23.8.05 1.92.13 1.65.12 1.96.15.99.07 1.53.13-.32.73-.6 1.38-.33.83-.83 2-.04.1.8.24.34.11.35.12 1.85.62 5.63 1.87 1.77.61 1.3.44 1.28.38.19-.45.71-1.12 1.34-1.84 1.24-1.42.32-.36 1.44-1.44 2.05-1.77 2.55-1.78 1.1-.69.97-.61 1.82-1.12.63-.39 1.41-.87.31-.2 1.34-.83.86-.54 1.54-.96 3.63-2.24 4.02-2.48 1.66-1.02.37-.23 3.36-2.09 1.86-1.12 1.7-1.02 1.79-1.07 3.44-2.05 1.94-1.01 2.15-1.11.61-.29.97-.46 1.94-.83 2.27-.99.34-.15 2.85-1.51 2.56-1.73 1.28-1.07 1.12-.94 1.63-1.66.8-.92.6-.74 1.38-2.23-1.29.22-1.65.24-2.41.37-2.6.39-.48.07-1.08.18-.64.11-.63.11-.49.09-.59.11-1.99.35-.17.03-.98.17-1.64.28-.79.14-1.53.26-.68.12-2.21.38-1.72.32-.24.05-.39.08-1.37.27-1.92.36-.46.09-.28.05-.56.11-.13.02-2.01.39-.29.06-1.46.3-1.6.27-.78.19-1.01.23-.93.18-1.09.18-.82.13-.92.15-.25.03-.32.05-.73.1-.62.08-.79.1-.7.09-.86.1-.28.03-.64.06-.95.09-.32.04-.75.07-.95.09-1.09.09-1.51.12-.8.06-.73.05-.82.04-.69.02-.29.01-.4.02-.46.03-.63 0-.6 0-.14 0-.16.01-.13.01-.47-.03-.6-.01-.23-.01-.48-.01-.39-.04-.52-.05-.77-.09-.53-.06-.66-.07-.44-.05-.53-.09-.15-.02-.26-.05-.49-.07-.68-.11z" /><path d="m405.39 394.15l-4.11.05-5.29-.05-1.28-.04-9.06-.25-2.37-.21-9.46-.83-1.93-.17-4.3-.39-7.03-.65-6.81-.66-.18.62-.53 1.75-2.19 7.47-1.76 5.6-1.66 5.43 1.54.92.63.37.53.25.51.32.54.36.76.56.57.47.52.5.49.51.48.54.42.42.39.3.38.19.58.23.81.24.74.13.63.14.46.19.4.29.44.44 2.07 2.6 1.97 2.5.49.56 2.01 2.35.47.75-.06.07-.17.24-1.58.55-1.11.36-.22.14-.11.54.02.07.14.48 1.5 1.78 1.66 2.01 1.01 1.28.28.49.31 1.25.54 2.74.34 1.65.14.38.6.44.24.25.37.15.69.23.51.35.32.57-.1.58-.32.66-.23.35-.01.27.37.29.88.5.71.44.14.22-.03.22-.01.29-.04.3.29.34.44.37.2.19.77.73.69.74.58.57.41.34.62.4.42.32.32.23.16.27-.08 1.03-.03.44.06.33.2.33.3.39.74.91.19.2.28.2.2.12.17.21.4.81 3.88-.72 2.68-.37 3.37-.26 2.01-.06 1.97-.06 4.42-.11 5.33-.09 2.12-.03 4.67-.08.85.01 4.12-.15 1.63-.06 4.64-.49 2.78-.53 1.27-.38 1.85-.56 4.26-1.5 4.92-1.74.86-.3 8.41-3.13 6.15-2.33-.96-1.27-.46-.57-1.33.32-1.35.03-.91-.62-.52-.93-.24-.82-.5-.43-.7-.27-.87-.09-.84-.04-1.08-.18-1.12-.55-1.41-.72-.79-.41-3.3-1.64-1.58-.77-2.04-.98-1.28-.77-.34-.29-1-.85-1.35-1.17-.4-.35-1.01-.88 1.13-.36 1.07-.47-1.35-.93-.99-.35-1.44-.51-.32-1.34-.37-1.55-.72-.81-.43-.51-1.21-.98-.24-.19-.23-.14-.32-.21-.33-.27-.21-.32-.03-.1-.03-.14-.11-.49-.06-.42 0-.8-.02-.62-.37-.51-.06-.25-.16-.36.24-.36.61.08-1.67-3.26-.23-.06-.42-.34-.64-.44-.05-.37.45-.25-.06-.09-.05-.08.1-.05.22-.27.05-.24-.19-.28-.28-.29-.6-.57-.33-.45-.01-.02-.31-.56-.14-.36-.05-.22.14-.43.33-.67.52-.99.52-1.05 1.03-2.04.28-.5.38-.4.51-.27.74-.21 1.21-.21.3-.04 0-1.23-.03-1.09 0-.19.09-1.11.12-2.46.02-.6.02-.29-.18-1.05-.09-.55-.11-.35-8.98.59-5.91 0-2.54.03z" /><path d="m401.41 300.9l.77.02.43.01.78.03 1.39.01.56.01.22-.03.24-.02.6-.43.31-.26.13-.1.49-.12.17-.01.43-.03 3.18-.24.46-.04 1.32-.09.46-.03.32-.03.32-.03.16-.01.36-.08 1.53-.35 2.05-.46.2-.05.91-.22.91-.21.73-.39.07-.02.51-.09.15 0 .18.01 1.02.06.26.03.17.02-.27 1.16-.26.98-.44 1.31-.16.48-.26 1.23-.21 1.28-.07.32-.09.4-.12.55 4.39-.05 2.28-.04 1.07-3.63.32-.99 1.05-3.23.17-4.06-.07-.86-3.94-.4-.99-.28-.73-.35-.31-.2-.35-.22-.09-.06-.17-.09-.63-.34-.14-.05-.49-.2-.08-.04-.88-.17-1.2-.24-.78-.15-.18-.04-.6-.12-.39-.09-1.21-.29-1.05-.28-.39-.13-.38-.13-.64-.26-.21-.09-.42-.16-1.04-.39-.27-.11-.75-.23-.91-.29-.93-.31-.95-.32-.33-.12-1.77-.73-1.07-.77.13-.98.09-.75-1.41-.22-.69-.1-2.13-.43-.56-.12-.43-.09-.88-.18-1.67-.36-1.97-.41-.55-.11-.34-.02-3.14.95-.64.06-.66-.07-.58-.18-.72-.37-.43-.2-.41-.22-.38-.18-.5-.03-.19.52-.27.77-.26.61-.03.82.04.12.1.26.05.12.17.42.14.41.1.32.21.61.24 1.19.16.77.01.06-.1 1.83-.02.07-.09.24-.22.62-.17.44-.48.89-.11.16-.6.9-.11.14-.08.1-.4.53-.59.77-2.04 2.6-.23.3-.17.2-2.42 2.83.65.06.7.05.14.01.56.02.8.04 1.34.05 1.62.07 2.72.18 2.72.06.14.01 1.24.02.05 0 3.66.06 2.47.07.33.01 1.11.03.13-.41z" /><path d="m499.58 442.42l-.03.33-1.57 3.67-1.28 1.9-1.18 1.43.87 1.6 1.18 2.19 3.32 6.37.37.71 1.75 3.28 1.84 3.44 1.33 2.56 1.64 2.97 1.01 1.84 5.01 9.52 4.67 8.88.16-.03.75-.17 5.44.51 3 .01 2.26.01 2.77.24 1.61.18.45.01.31-.02 2.12-.32 1.66-.11 1.56-.31 3.27-.76 3.18-.75 5.33 2.88-.03.01 29.78 9.85 9.44 4.89 7.18 3.7 11.6-9.05.13-.11.65.33 9.45-7.24 5.24-.62-1.1-3.17-6.88-11.94-.19-.35-26.22-15.91-.26.08-.13.02-.12-.08-.14-.01-.62-.22-1.44-.36-.78-.03-.14.09-.28.19-.31.25-.54.32-.48.37-.56.36-.24.17-.01.09.21.23.64 1.06.41.83.05.13-1.69.44-.71.33-1.89.78-1.08 0-.72-.38-.19-.24-.57-.32-1.55-.56-.85-.43-.79-.3-.36-.05-.33-.2-.36-.38-1.14-1.61-.03-.32-.09-.29-.3-.17-.41-.43-.49-.44-1.31-.62-1.26-.68-.91-.38.15-.17 1.1-.85.31-.19.4-.26.36-.43.36-.65.34-1 .37-.55-.08-.41.63-.54.02-.02.46-.16.27-.06.41.04 1.24-6.44.7-.26.75-.16.62-.03-1.82-2.1-.95-.86-.59-.51-.85-.63-.28-.18-.44-.5-.44-.86-.02-.56.1-.18.07-.06.3-.41.17-.23.03-.2-.18-.72-.61-.8-.73-.39-.46-.26-.24-.3-.1-.24.14-.21-.06-.24 1.08-3.35.38-7.02 0-.85-.51-.08-.15-.06-.42 0-.67.05-2.3.44-.53-1.75-.13-.25-.12-.04-.21-.13-1 .07-1.29.12-.28.02-.08-.03.15-.2.04-.25-.02-.04.02-.23.29-.56.1-.07.63-.1.59-.1.35-.01.07-.01.77.12.74.14.16-.07.05-.15-.22-.08.47-.28 1.26-.32.41 0 .15-.04.01-.17-.14-.23.06-.06.14-.03 5.03-.75.03.07 2.86-.43-.03-.09 1.18-.17 1.73-.4.28-.1.01.07 1.77-.8-.09-.05 1.18-.5 3.16-.97-.12-.2.23.04.08-.01-.33-.55-3-5-1.09-1.31-.74-.62-1.24-.84-2.25-1.41-1.99-1.22-1.53-.88-.7-.46-3.17-2.07-.69-.45-.91.5-3.9 2.14-.21.13-.28.14-3.8 2.13-1.06-.75-3.34-2.27-2.92-2.01-2.33-1.6-.63-.44-2.2-1.53-1.09-.76-2.55-1.96-3.67-3.51-3.29-2.89-3.35-2.95-1.35-1.19-.22-.2-3.48-3.06-.76-.67-2.09.06-1.17.06-.25 0-1.08.05-1.56.21-1.19.19-.45.07-1.08.22-2.4.78.05-.71-.02-.62-.2-.78-.44-.93-.39-.56-.14-.6.23-1.07-.06-.84-14.25 2.45-28.55 4.92-9.43 1.62 2.66 5.05.68 1.3 1.66 3.15.31.58.27.52 1.66 3.06 1.99 2.43 1.78 2.16 2.63 3.05.93 1.07 2.72 3.14.34.41.73.87 2.05 2.48.42.5 2.15 2.59.68.81.88 1.05 1.46 1.72 1.84 2.16.61.72.86 1.26 3.47 5.09.03.1 1.27 4.71.07.26-.29 3.58z" /><path d="m386.88 293.34l.08-.1.11-.14.6-.9.11-.16.48-.89.17-.44.22-.62.09-.24.02-.07.1-1.83-.01-.06-.16-.77-.24-1.19-.21-.61-.1-.32-.14-.41-.17-.42-.05-.12-.1-.26-.04-.12.03-.82.26-.61.27-.77.19-.52-1.46-.11-1.37-.09-2.43.56-2.48.7-3.16.88-2.15.6-1.25.35-1.06.3-1.73.48-.49.14-1.42 1.15-4.17 2.85-1.01.69-.97.66-2.03 1.38-2.24 1.54-2.18 1.51-4.58 3.15-1.94 1.4-.32.14 2.45 1.85.77.59.19.15.78.55.65.39.13.08.78.27.55.11 1-.02.88-.03 1.34-.17.81-.11 1.86-.28 1.24-.2.82-.13.76-.13 1.92-.34.47-.08 1.92-.36.75-.13.06-.01 1.59-.26.72-.09 1.47-.19 1.09-.09.9-.08 1.6-.07 2.04.01 1.16.07.38.04 2.42-2.83.17-.2.23-.3 2.04-2.6.59-.77.4-.53z" /><path d="m286.75 200.41l-.67-.12.05-.08.2-.42-.01-.42-.36-.6-.7-.69-2.08-1.34-3.19-1.88-2.36-1.34-.91-.54-.92-.46-2.55-1.16-.92-.47-1.42-.71-.56-.26-1.63-.75-.42-.21-3.86-1.9-.88-.44-.17-.08-.7-.34-.17-.08-3.08-1.47-3.48-1.68-.41-.2-.36-.17-.24-.12-1.1-.53-1.04-.51-1.12-.55-2.3-1.09-.86.94-1.49 1.52-.99 1.01-3.65 3.46-.65.62-1.83 1.67-.53.48-2.11 1.84-.62.56-3.27 2.88-3.04 2.76-1.2 1.14-2.99 2.98-4.52 4.81-1.05 1.2-.96 1.09-.55.66-.75.9-2.5 3.08-.88 1.09-2.68 3.68-.47.69-.79 1.16-1.84 2.95-1.88 3.03-1.95 3.69-1.03 1.93-1.08 2.32-.95 2.05-.2.47-.32.75-.76 1.95-.2.5-.32.79-.82 2.23-.67 1.98-.57 1.79-.44 1.57-.53 2.08-.46 1.95-.21 1.02.64.56.33.28.26.14.59.2.85.22 4.69 1.16.67.19.54.27.4.31.26.42.71 1.31.1.36.03.35-.05.38-.03.06-.43.82-.19.39-.15.28-.29.72.01.46.15.56.15.46.52 1.27.4.95.12.19.28.17.57.23.65.23.93.34 1.46.57.35.15.32.2.55.46.62.56 1.77 1.73 3.89 3.72 2.14 1.98.34.32 5.13 4.43 2.82 2.44 1.46 1.22.88.46 1.26.54 1.54.69.73.32.34.18.38.24.54.48.28.28 1.29 1.28.78.76.62.56.69.53.24.17 3.97-2.34 1.69-.91 1.2-.53 1.75-.61 2.55-.81.83-.29 1.38-.49.44-.15 1.19-.4.76-.26 4.79-1.86.96-.39 1.07-.42 2.04-.78.15-.06.71-.28 1.14-.43 3.26-1.41 1.35-.58.75-.32 1.47-.64 2.33-1.01 2.58-1.12 2.2-.87 1.38-.34.9-.23.63-.15 3.01-.31.2-.01 1.22-.07 2.29-.14 3-.53 3.38-1.21 1.02-.44.28-.12.89-.38.88-.38 1.82-.86 1.38-.65.77-.43 1.05-.59 1.29-1.14.23-.2.62-.99.18-.29.36-.58.11-.75.15-1.01 0-.19-.03-.56.02-1.36-.5-1.31-.09-.43-.21-1.62 0-.63.01-1.22-.01-.04 0-.04-.09-1.48-.13-2.04-.01-.6-.02-.71-.13-1.15-.44-1.04-.26-.43-.21-.36-.32-.56-.08-.12-1.2-1.84-1.31-2.07 2-.44.81-.24 1.62-.48 2.42-1.3 2.32-1.63.37-.26.55-.35.89-.57 1.42-.91 1.61-1.08.19-.13.55-.36 1.11-.74 2.85-1.89.87-.58 1.92-1.28.15-.1.28-.18 1.35-.9 1.72-1.14.22-.16 2.04-1.36 1.45-.96-5.36-3.15-5.18-3.04-1.41-.83-5.51-3.25-3.52-2.05-.68-.39-.56-.34-2.28-1.35-.07-.04-.25-.14-3.46-2.05-2.29-1.32-3.27-1.9-2.74-1.69-.47-.29-.51-.31-1.8-.94-2.54-.85-2.46-.66-.1-.02z" /><path d="m402.61 300.93l-.43-.01-.77-.02-.13.41-1.11-.03-.33-.01-2.47-.07-3.66-.06-.05 0 .12.44.02.06.01.03.17.6.07.35.05.24.06.26.04.2.04.27.21 1.26.11.78.02.09.01.04.05.21.06.22.11.41.23.86.09.34.09.5.3 1.51.05.29.23.58.11.28.27.66.42.39.33.3 1.13.38-.07 2.04.02.6 0 .18.02.45.02.57.19 1.16.19.85.11.5.7 2.68.66 2.54.45 1.68.02.06.54 2.05.26.95.39 1.39.11.4.35 1.23.13.43.06.27.51 1.96.13.68 0 .03.68-.12 1.53-.26.79-.14 1.64-.28.98-.17.17-.03 1.99-.35.59-.11.49-.09.63-.11.64-.11 1.08-.18.48-.07 2.6-.39 2.41-.37 1.65-.24 1.29-.22 1.22-2 .24-.42.21-.47.1-.24.25-.64.29-.83.29-1.01.3-1.22.2-1.32.16-.84-.05-1.26-.14-4.25.22-4.44.21-1.11.21-1.11.89-2.93.9-2.68-2.28.04-4.39.05.12-.55.09-.4.07-.32.21-1.28.26-1.23.16-.48.44-1.31.26-.98.27-1.16-.17-.02-.26-.03-1.02-.06-.18-.01-.15 0-.51.09-.07.02-.73.39-.91.21-.91.22-.2.05-2.05.46-1.53.35-.36.08-.16.01-.32.03-.32.03-.46.03-1.32.09-.46.04-3.18.24-.43.03-.17.01-.49.12-.13.1-.31.26-.6.43-.24.02-.22.03-.56-.01-1.39-.01-.78-.03z" /><path d="m454.25 251.29l-.24.89-.09.23-.43 1.09-.28.53-.42.8-1.74 2.33 1.58-1.41 2-1.75 1.27-1.12.48-.42 1.94-1.77 1.49-1.38.58-.53.56-.51 2.6-2.36.87-.78.17-.15 1.98-1.78 3.93-3.18.65-.52 2.54-2.06 4.14-2.97.75-.54 6.54-4.13 1.07-.67 6.08-3.83 1.3-.82.73-.46 2.65-1.58 1.17-.7-1.02-4.49-.22-.97-.39-1.9-.17-.88-.68-3.36-.58-4.98-.28-2.45-.06-.44-6.41.62-1.92.23-.7.06-2.07.57-2.57.69-2.86.66-3.5.72-2.55.49-5.29.79-3.4.39-1.61.08-1.69.02-3.37-.27-2.23-.24-1.22-.22-2.73-.49-2.85-.69-1.86-.57-3.49-1.18-3.75-1.57-2.59-1.23-3.09-1.6-1.8-.73-1.89-.52-2.55-.61-2.2-.43-1.76-.3-2.29-.25-3.11-.05-.58-.01-1.44.1-1.17.06-3.89.41-6.4.97 2.58 3.26 4.35 5.58.49.63 1.29 1.71 1.28 1.71.76.92.94 1.13 1.9 2.52 1.03 1.32.09.12 1.5 1.95 1.53 2 1.19 1.48 1.98 2.48 1.02 1.27 1.5 2.06.22.59.21.59-.15.63-.08.34-.28.56-1.28 2.57-.49.97-.59 1.17-.1.19-.23.47-1.2 2.4-.37.76 1.19.17 1.32.19.13.02 1.25.17 2.67.43.24.04.97.22 1.35.31.93.21 1.41.31 1.3.28.39.09.85.19 1.16.27.63.19 1.86.56.55.19 1.23.41.97.49.32.16.3.15.1.05 1.23.71.51.29.24.16 1.71 1.15.48.35.46.34.62.44 1.23.81.5.33.8.52.34.22.83.54 1.2.78z" /><path d="m536.63 197.8l-1.54 1.28-.66.55-1.78 2.07-1.41 2.5-.58 3.29.24 1.38.15.88 1.51 2.89 3.39 5.63.77 1.27 1.4 2.32.9 1.52 1.33 2.22.21.37 1.19 1.99 1.36 2.36.74 1.28.91 1.58 2.61 4.35 2.01 3.34 1.46 2.53.11.2 2.76-.5 7.74-1.44.21-.04 6.41-1.17 3.11-.49 1.09-.13 7.1-.87 3.41-.42 2.08-.26.39-.05 4.1-.5 2.52-.31.62-.08 4.5-.55-.06-.16-.24-.57-.08-.41.17-.55-.12-.42-.32-.46-.25-.7-.13-.43-.1-.45.04-.35.24-.54.62-.69.55-.33.17-.1 1.13-.11.87-.07.72-.26.2-.37.58-1.02.48-.99.03-.57-.03-.51-.29-.41-1.06-.41-1.29-.53-1.31-.62-.88-.36-1.41-.09-2.07.09-.48-.06-.66-.07-.6-.41-.33-.66-.24-1.23.09-.61.41-.7.61-.47.41-.46.07-.08.22-.51-.05-.38-.3-.38-.63-.19-.93-.08-1.3.13-1.33.21-1.21.11-1.18.14-1.15.11-1.16.06-1.93-.19-.92-.42-.28-.47.06-.45.33-.5.35-.75.33-.76.21-.74-.24-.43-.52-.35-.91-.44-.89-.73-1.38-1.07-1.69-1.5.06-.63.67-.23.51-.2.72-.19 1.14-.24.89-.09.46-.04 1.09-.05.94.07.92.18 1.01.02.93-.36.05-.05.78-.78.5-1.23.41-1.35 0-1.6-.02-.24-.22-2.45-.02-.2.19-.44.48-.42.87-.08 1.06.19.88.08.23-.06.25-.07.11-.03.07-.46.02-.11-.33-.6-.35-.54.01-.35.01-.08.24-.52.56-.74.79-.95.21-.27 1.39-1.54.4-.87-.16-.63-.43-.23-.9-.13-.73-.2-.26-.34.02-.37.45-.46 1.44-.68 1.38-.4.81-.15.94.05 1.3.44 1.79.85.94.38.88.27.91.07.84-.25.65-.39.28-.4-.03-.44-.23-.39-.5-.26-.67-.22-.89-.31-.35-.38.1-.16.15-.23 1.4-.45 2.55-.28 3.71-.9 1.93-.53 2.02-.07 2.91-.15.63-.03.36-.12.36-.23.34-.34.08-.34-.2-.3-.47-.21-.71-.16-1.34-.14-1.24-.06-1.15-.29-.99-.52-.62-.64-.74-1.15-.14-.22-.2-.31-.81-.84-.65-.37-.97-.09-.86.3-.98.33-1.48.4-2.64.64-.28.06-1.86.43-1.58.36-2.85.6-1.24.24-.26-.04-.6-.08-4.24-.85-2.05-.43-2.34-.47-.7-.21-.55-.17-1.17-.55-.73-.67-.35-.66-.16-.33-.04-.07-.03-.46.11-.44.23-.43.63-.59.69-.53.87-.3 1.15-.22.99-.21.8-.39.94-.42.81-.35 1.1-.27 1.04-.33 1.58-.6.59-.36.73-.27.62-.16.69-.11.95-.06 1.47.09.71.17.63.22.69-.06.61-.3.2-.34.08-.12-.18-.52-.35-.83-.33-1.06-.08-.39-.23-1.04-.14-.8-.15-.35-.53-.64-.83-.66-.85-.25-1.3-.24-1.08-.12-.49-.05-1.14-.09-.51-.18-.21-.08-1.09-.51-2.11-.57-1.59-.3-1.71-.27-1.11-.49-.33-.18-.18-.27.08-.53.29-.74.08-.1.78-.99 1.22-.87 1.02-.63.48-.41.74-.8 1.37-1.26 2.33-1.82 1.63-1.42 1.37-1.4.77-.82.47-.67.11-.61-.12-1.14-.38-3.89-.14-.89-.45-.65-.67-.65-.99-.51-2.16-1.05-1.83-.36-2.71-.38-.96-.31-.52-.22-.06-.14.14-.49.2-.65.28-.46.22-.65-.29-.56-.54-.39-.52-.24-.79-.24-.69-.08-.55.04-.53.12-.98.13-.87.08-.5.14-.84.2-.52-.01-.48-.15-.43-.32-.16-.25-.04-.25.02-.34-.02-.17-.03-.21-.2-.28-.31-.23-.19-.17-.06-.27-.03-.5-.15-.43-.52-.78-.56-.95-.4-.63-.3-.3-.75.04-.44.22-.45.46-.64.85-.59.7-.85.85-.93.73-1.34.51-.37.08-.58.01-.59-.13-.63-.28-.32-.28-.14-.12-.28-.51-.06-.47-.21-.63-.3-.38-.64-.38-.69-.18-.96-.12-1.04.08-.8.25-.51.36-.37.43-.25.32-.38.11-.51-.15-.59-.57-.74-1.47.15-.53.85-1.02.73-.93.09-.71-.39-.9-.42-1.05-.05-.14-.06-1.01.59-.99 1.04-1.02 1.4-1.33 1.03-1.3.85-1.65.91-1.25.39-.83.31-.69-.03-.65-.15-.7.18-.5.47-.43.99-.32 3.09-.47 1.25-.2.24-.22.09-.38-.24-.38-.68-.34-.96-.22-1.74-.32-.53-.26-.19-.37.25-.39.74-.34.79-.27.45-.16.57-.51.4-.48-.02-.3-.12-.56-.11-.66.29-.92.17-1-.13-.28-.12-.26-.31-.37-.25-.34-.27-.5-.16-.45-.01-.36.05-.38.03-.42-.03-.35-.01-.39.1-.34.38-.64.13-.45.04-.41-.04-.59-.08-.29-.32-.43-.58-.37-.57-.33-.66-.32-1.39-.36-.84-.18-.93-.3-.95-.5-1.15-.39-1.1-.22-1.11-.05-1.38.1-1.64.08-.92-.08-.47-.49.02-.29.22-.37.72-.38 1.44-.27 1.11-.16.56-.29.4-.58-.1-.81-.27-.62-.62-.52-.82-.52-.9-.52-1.07-.49-.73-.8-1.51-1.2-1.8-.92-.99-.78-.03-1.01.43-.74.63-.64 1.53-1.12 1.38-.88-.17-.16-.26-.28-.35-.45-.43-.65-.79-1.6-.15-.37-.04-.09-.35-.93-.16-.61-.12-.56-.07-.7-.01-.72.07-.68.12-1.01-.06-.54-.04-.42-.12-.63-.18-.74-.2-.37-.31-.37-1.33-1.21-2.97-2.02-2.54-1.45-1.4-.75-.65-.3-2.42-1.16-2.24-1.15-2.83-1.52-2.6-1.78-1.09-.8-1.59-1.23-1.63-1.35-.99-.79-2.24-1.83-1.33-1.08-1.19-.92-.83-.55-.88-.48-1.01-.57-1.34-.62-1.17-.45-1.73-.56-1.29-.41-3.03-.94-3.04-.93-4.47-1.44-.1-.03-.36-.13-1.47-.44-.32-.09-.43-.12-1-.21-.95-.15-.36-.05-.74-.15-.42-.07-.71-.16-.41-.12-.35-.02-.76-.27-.08-.07-.56-.39-.17-.13-.15-.06-.03-.07-.3-.34-.08-.11-.56-.47-.09-.07-.89-.38-.71-.18-.34-.09-.22-.07-.33-.04-.31-.09-1.26-.23-.2.02-.54-.19-.58-.13-.89-.17-.73-.17-.25-.16-.61-.08-.52 0-2.52-.3-.78-.07-.69.13-.73.08-1.07.23-.5.08-.4-.02-.18.04-.25-.02-.96-.45-.36-.45-.58-.65-.56-.47-.67-.34-.12-.03-.16-.09-.76-.32-.25-.13-.73-.18-1.03-.22-.62-.04-.09.04-.09-.05-.77-.09-1.36-.12-.46.01-.12-.05-.75-.02-.36-.03-.68-.08-.5-.12-.21.28-.11.14-.03.35-.07 1.18.45.75 1.38 1.03-.21.8 1.21.86-.02.49.27.23.47.22-.4.78-.35.06-.41.07-.91-.03.36 1.05-.85.47.16 1.4-1.16 1.08-.96.23-.92 1.38-.6.65-.35 2.25.03 2.15-.74.45.26 1.55-.04 1.39-.05.6-.09.62-.47 1.79-.07.69.03.75 0 .93-.18.62-.34.65-.32.81-.01.75.1.73.1.77.11.56.35.64.72 1.08.57.96-1 .14-.24.07-3.64.27 1.28 1.66-2.62.54 2.03 2.06 21.09 21.3 1.56 1.58-3.8.51-.23.04 3.29 3.14 2.58-2.18 1.93-1.68.31-.22.8.81 2.64 2.6 1.11.98 1.3 1.06 2.61 2.12 4.94 4.08 7.19 6 .6.61.1.22-.01.42-.1.39.02.46.31.31.66.25 1.13.17-1.37 3.55-1.42 3.99-3.6 9.95-1.42 3.82-1.53 4.13-.74 2-1.23 3.34-1.11 3.21-.09.25-.84 2.43-.97 3.19-1.36 4.54-.22 4.85-.03 1.87.14 1.53.2 2.17.02.37.37 7.3.2 4.89.02.44.07.91.31 3.94.06.77.01.2.09 1.06.39 3.16.05.47.1.77.16 1.34.12.92.1 3.09.14 4.54.17 1.48.06.44.28 2.45.58 4.98.68 3.36.17.88.39 1.9.22.97 1.02 4.49 1.15-.73 2.03-1.29 8.57-5.37 1.15-.71 3.76-2.33 1.78-1.12.48-.31 5.18-3.18 7.24-4.47 2.95-1.81 2.25-1.4.76-.47 1.21-.75z" /><path d="m506.56 262.59l-.22-1.47-.43-2.04-.05-.22-.34-1.58-.06-.37-.66-4.19-.08-.5-.19-1.32-.51-3.37-.2-1.39-.14-.88-.28-1.9-.27-1.01-.85-3.17-.19-.73-.03-.11-.21-.77-.06-.23-.35-1.32-.48-1.79-.1-.39-.09-.38-.53-2.34-.34-1.53-.14-.59-.29-1.3-.25-1.08-1.1-4.88-1.17.7-2.65 1.58-.73.46-1.3.82-6.08 3.83-1.07.67-6.54 4.13-.75.54-4.14 2.97-2.54 2.06-.65.52-3.93 3.18-1.98 1.78-.17.15-.87.78-2.6 2.36-.56.51-.58.53-1.49 1.38-1.94 1.77-.48.42.46.92.33.66.16.33.25.55.09.2.22.47.18.41.08.16.53 1.25.38 1.1.02.05.19.56.15.44.34 1.14.27 1.01.18.71.22.79.02.09.31.44.2.28.48 1.19.49 1.19.02.11 1.08-.19.85-.16.67-.12.16-.07.02-.14.14-.31.19-.11.81-.16 1.23-.21.39.02.45.32.42.24.2.04.23.05.5-.03 1.29-.26.95-.17.54-.09.62.06.18.03.24.04.58.17.33.11 2.39.67 2.28.65.6.13.62.09 1.31.13 1.01.08.99.06.66-.03.6-.02 1.96-.08 1.64-.07.59-.02 1.4-.04.17-.01 1.85-.05.47-.04.33-.1.27-.08 1.11-.34.89-.26.85-.18 1.5-.07.21 0 .81 0 .94 0 1.7-.01.12 0 1.7.01 4.42.03.05-.93-.42-2.92z" /><path d="m652.42 415.84l.36 1.99.15 1.07-.86-.08 0 .65.95.27.23.47.18 1.11.03.32.13.61.9.9 1.35 1.41 21.63 6.39 11.93 3.41.06-.33.31.11.19.06 21.42 6.09.01-.01 2.84-8.64.01-.03 2.14.35 1.13.22 1.42.33 1.57.39 1.1.25.5.16.78.18.91.27 1.17.28 2.08.58 1.56.6 1.9.87 2.1 1.09.69.14 1.26.11 3.41.08.39.05 3.92.23 3.53-.06 5.52-.02.42-.12.5-.31 1-.53.61-.48.69-.65.99-1.03 1.47-2.67.95-2.39.03-.59-.59-1.8-1.07-2.74-.19-.45 4.29-4.93-2.28-4.99-.04-.03 2.92-4.15.02-.07-3.07-.84-2.53-.83-.27-.14-.97-.48-.25-.31-.38-.46-.26-.2-4.7-5.21-.04-.04.13-.06.38.05.62.08 16.99 2.08.02-.04.46-8.07 2.65.18 2.12.16.04-.33.01-.03.62-2.51 1.43.05-.21-.66-.55-1.13-.2-.29.02-.35 1.07.38 1.51.44.67.27.44.07.32-.04 1.31-.18.07-1.1-.02-1.5-.23-.01-.03-.3.06-.13-.09-1.55.02-.87.07-.18-.08-.55-.56-1.11-.28-.86.01-.29-.09-.66-.16-.29.22-.25.15-.18.17-.13.59-.08.91-.05.41 0 .77-.03.53-.05.32-.06.11-.03.11-.06.02-.21-.05-.26-.14-.39 0-.27.11-.07.1-.03.47-.05.71-.03 1.27.01.84.11.38.03.08-.02.07-.04.18-.36.03-.01 1.6 1.07.39.2.03-.02 3.89-.57-.6-1.39.77-.07 2.19-.1-.19-.8-.08-1.25-.07-.19.04-.09-.55-.35-.65-.18 2.76-2.33-2.04-1.57-.5-.14.04-.45 0-.35.13-.33-.11-.23.01-.49-.04-.56.39-.49 1.93-.76-5.57-4.75-.08-.07-2.44-2.08-3.73-3.18-.25-.21-.22-.1-.28-.03.07-.15.08-.17-2.52-5.19.34-.06-7.62-15.68-.39-.02.39.8-9.65-2.65-.26-.07-.17.01-.18-.03-.35-.23-.32-.1-.29-.02-.52.02-.14-.03-.37-.21-.32-.14-.15-.05-.2-.03-.12.01-.37.16-.19.03-.31-.12-.13-.14-.12-.08-.24-.09-.73-.17-.73-.51-.18.04-.87.51.02-.05-.86-.19-1.15-.17-.86-.2-.41-.12-.65-.28-.4-.2-.4-.45.39.02.4-.06.09-.03.1-.08.06-.35.53-1.98-.01-1.27-.22-1.06.19-.11.41-.14.91-.33.25-.12.27-.16.7-.5.11-.07.15-.06.14-.03.23-.01.3-.4.14-.26-.01-.29-.16-.33-.22-.33-.23-.25-1.31-1.18-.22-.15-.32-.13-.41-.05-1.14.07-3.52.35-2.13.22-.66.08-.86.21-.41.14-1.91.7-.45.21-1.41.75-.28.11-.35.03-.8.03-.03.52-.04.25.04.77-.05.48 0 .36-.08.48-.17.36-.16.19-.09.02-2.86.37-.36-.02-1.15-.16-.69-.12-1.56-.3-2.57-.51-1.33-.25-.23-.08-.13-.13-.05-.09-.07-.13 1.07-.89.69-.52.24-.14.32-.09.35.03.33.08.45.09.2-.65.12-1.87-.13-1.71.12-.05.93-.11.85-.14.65-.11-.06-.17-.1-.58-.12-.76-.1-.72-.05-.63-.08-.82.12-.47.02-1.25.02-.29-1.46.1-.02-.08-.13-.12-.06-.1-.27.08-.49.06-1 .09-.74.07-.77.06-.82.08-.25-.02.06-.36.32-1 .09-.41-.35-.04-.23 0-.13-.08-.08-.29-.13-.21-.33-.38-.44-.38-.23-.17-.56-.08-.71-.09-.7-.1-.69-.15-1.07-.29-.72-.22-.45-.12-1.02-.36-.04-.13.1-.38-.46-1.66-.19-.18-.45-.62-.26-.45-.02-.13-.07-.23-.27-.56-.3-.41-.09-.36.95-.99.88-.96 1.39-1.56.15-.21.24-.4.23-.62.05-.33.4-.92.16-.66.31-.88.2-.67-.13-.33.11-.04.21-.22.27-.9.04-.29.17-.89.36-.95 3.32-5.2.14-.52-.06-.34-.16-.08-.29-.73-1.58-4.14 0-.17-4.61.01-2.74 0-.27.65-2.46 5.95-3.03.46-6.93.68-2.24.34-3.79.21-3.84.3-3.98.51-.01 1.57.11.17 4.57-.34.32.07.02.63.1 1.12-3.99.56-3.46.86-2 .34-2.95.58-1.64.32-3.34.7-.37-.53-.55-.88-.59-.83-.48-.74-.21-.22-.35 0-.73.08-1.36.65.01.08-1.32.33-2.38.53-.95.23-.56.09-.25-.1.01-.14.16-.44.13-.32-.49-.37-.03-.08-.02-.39-.03-.2-.17-.12-.23-.08-.31-.03-.25.06-.5.38-.27.17-.39.08-.48.49-1.1.49-2.18-.77-.2.02-.07.84.67.65-.18 1.32.61 1.01.22.41-.03.15-.25.24-.64.4-.68.33-.54.45-.38.42-.12.51.09.56.33.85.33 1.31.77.03 0 .28-.53 2.63-.56 2.61-.41 1.5.09.6.21.28-1.23 3.35-3.12 8.08-7.39-1.03-9.05-1.28-2.23-.3.06.68-4.34 1.06-2.24.57-6.18 1 .02 1.8-.03.19-2.31-.19-.2.56-1.93-.18-5.17-.07-.67-.19-1.71-.59-2.76-.98-1.02-.4-1.99-.78-3.95-1.76-3.59-1.71-4.32-2.08-2.18-.87-1.05-.42-.35-.1-2.86-.82-.59-.17-3.5-.84-1.08-.31-2.65-.77-.65-.19-.39-.11-2.62-.89-1.19-.4-3.03-1.07-.97-.35-1.52-.51-1.53-.52-.35-.12-2.64-.92.12 1.06 1.18 1.51 1.13 1.01.67.7.24.51-.19.56-.47.48-.45.45-1.18 1.03-1.18.96-.53.6.4.6 1.13.72.41.25.77.45 1.03.27 1-.02.42-.14.44-.14 1.73-.41.18-.01 2.38-.12 2.07.4 1.06.49.66.31 1.3.76.49.35.49.35.05.06.65.86.44 1.09.2.69.67.91.18.18.55.54.65.7 1.45 1.11 1.51.93 1.94.87.55.23 1.62.7 1.54.55 1.13.66.46 1.01.54 1.21.3.74.12.3.52.82.19 1.26.1 1.81.36 1.82.3.82.44 1.21-.03 1.65-.73 1.61-.08.19-1.1 1.23-.87.84-.93.54-1.69.51-2.16.46-2.3.5-.39.53-.6.79-.08 1.01.14.81.15 1.14.22.91.46.68.19.2.48.51 1.47 1.28 2.41 2.01 2.54.21.83.07.01-.08.64-.02 1.59.02 1.61.14 2.36.22 2.54.21-.07.43-.05.35-.01.51-.05.59.03.26 0 .04.13.29.38.49.28-.02.73.06.62.11.22.03.88.14.45.09.21.1.1.04.21.15 1.06 1.16.29.36 1.07 1.67.26.49.11.44.02.41-.04.3.08.14.33.23.41.21.44.08.97.26.56.12.46.21.42.32.42.38.76.64 1.24 1 .38.26.19.06 1.07.03 1.25.02.88.04 1.15.11.68.1.45.15.54.19 1.32.44-.05.11-2.85 5.72 1.79.17 1.07.14.58.11.26.1.05.15-.03.1-.13.1-.36.16-.25.11-.09.16.03.2.16.11.36.1.39.02.43-.05.33-.13.28-.18.23-.21.17-.2.25-.1.31.01.25.08.19.17.06.17-.05.27-.1.29.01.28.05.2-.06.17-.24.15-.19.07-.15.05-.07.07.05.18.17.2.15.1.11.17.16.14.38.03.47 0 .3-.06.22-.09.11-.13.17-.29.2-.25.36-.18.38 0 .29.13.2.18.16.15.25.11.32.09.26.09.21.13.17.25.16.44.02.35.06.22.13.18.29.18.28.09.4-.01.7-.07.53-.04.38.04.64.12.71.17.71.16.45 1.67-.1.24-.2.46.26.32.1.36.02.55-.08.36-.16.78-.27.49-.12.21-.55.89-.33.38-.29.33-1.08 1.02-1.04.76-.88.79-.41.44-.43.47-.45.68-.63.83-.85 1.59-.38.99-.17.93-.09.8 1.38.04 1.67-.08.72-.03.19.03.2.02.11.22-.09.25-.12.14-.32.37-.64.69-.24.26-.51.49-.13.32-.08.14.04.13.86.1.95.19.93.2.71.27.14.09.74.58.39.31.72.2.6.19.38.18.47.27-.04.29.3.19 1.51.39.46.09.48.01.93.13.33.08.37.31.26.22.28.11 1.18.24.2.06.14.09.56.28.3.23.14.11.12.26.08.45.08.57.28.54.44.69.31.46.36.34.25.19.98.4.65.28.75.52z" /><path d="m168.81 327.22l.29-.06 1.1-.12 1.4-.12 2.2-.39 1.48-.26 1.53-.28 2.43-.41.37-.07-.08-.2 1.01-.15 1.67-.3 2.7-.49 3.54-.63 2.8-.46.21.04.38.38.38.56.42.46.5.5.51.45.82.7.26.19 1.15.3 4.07.64 2.09.32 4.2.66 1.47.23.63 1.84.35.96.03.1.26.91.82 2.41.84 2.53 7.76-1.37.39.33 3.38 2.8 2.61 2.19.2.15.44.22.73.3 2.72.8 3.85 1.14.67.16 2.22.47.09-.14.23-.13 4.82-2.03 3.33-1.45.1-.15-.19-.2.29.02 4.96.63.47-.15.93-.18.88-.07.72.01.79.1.34.07.16-.45.33-1.2.49-1.72.59-.12 1.66-.32 1.47-.27 4.14-.8-1.28-3.52-.55-1.56-.06-.18-.85-2.18 5.21-.99 1.48 2.14 1.96-.05 2.35-.38 3.59-.59 6.45-1.07-1.44-.66-1.08-.55-.27-.2-.98-.88-2.27-2.06-3.55-3.28-1.89-2.16-1.34-1.45-.32-.24-.81-.65-.18-.12-.66-.43-.96-.66-.87-.64-.79-.66-.54-.62-.37-.56-.24-.47-.09-.77.09-.63.04-.64-.11-.44-.36-.43-.66-.57-.91-.54-1.64-1.11-1.56-1.03-.72-.48-.69-.41-.61-.25-.65-.15-1.48-.32-1.41-.29-.89-.23-.59-.22-1.02-.58-1.38-.89-.47-.37-.2-.26-.23-.38-.25-.49-.24-.66-.89-2.13-.25-.62-.11-.34-.24-.39-.56-.73-.81-1-1.65-2.04-.61-.7-.31-.29-.21-.18-.37-.25-.24-.17-.69-.53-.62-.56-.78-.76-1.29-1.28-.28-.28-.54-.48-.38-.24-.34-.18-.73-.32-1.54-.69-1.26-.54-.88-.46-1.46-1.22-2.82-2.44-5.13-4.43-.34-.32-2.14-1.98-3.89-3.72-1.77-1.73-.62-.56-.55-.46-.32-.2-.35-.15-1.46-.57-.93-.34-.65-.23-.57-.23-.28-.17-.12-.19-.4-.95-.52-1.27-.15-.46-.15-.56-.01-.46.29-.72.15-.28.19-.39.43-.82.03-.06.05-.38-.03-.35-.1-.36-.71-1.31-.26-.42-.4-.31-.54-.27-.67-.19-4.69-1.16-.85-.22-.59-.2-.26-.14-.33-.28-.64-.56-2.43-2.2-.23-.19-.29-.13-.42-.08-1.05.04-1.49.07-1.8.07-1.15.05-.92.04-.64.02-.35-.08-2.66-1.1-1.04-.45-1-.39-1-.43-.29-.11-.45-.17-.65-.2-.66-.12-.84-.12-1.44-.19-1.85-.25-1.17-.08-1.28-.1-.55-.01-.48.03-.79.13-.65.1-.24.03-.44.03-3.36-.31-1.31-.07-1.2-.07-1.16-.03-1.62-.06-.63-.16-2.4-1.16-1.65-.83-1.55-.77-1.8-.88-.99-.55-.43-.43-.41-.82-.45-.84-.59-1.14-1.93-3.97-.59-1.15-.4-.82-.37-.79-.35-.79-.76-1.59-.2-.24-.39-.34-2.02-1.65-.51-.3-.52-.17-.6-.06-1.91-.06-.95-.02-.54-.06-1.2-.2-1.25-.24-.65-.09-.41-.11-1.46.8-2.83 1.6-1.07.66-.98.42-.65.34-.2.1-.25.12-1.28.61-2.43 1.11-2.56 1.04-2.88 1.12-2.29.89-1.92.76-1.92.82-1.84.89-2.22 1.11-.93.46-.21.1-1.47 1.36-1.33 1.23-.83.82-.77.83-.7.85-.66.86-.63.87-.58.88-.55.88-.54.89-.57.98-.11.18-1.09.19-1.2-.43-.66-.22-.71-.21-1.18-.27-1.62-.21-2.86-.17-1.85-.11.07.39-1.17-.05-2.67-.14-3.06-.19-.39.07-1.54.39-3.81.86.05.45.32.57.42.65-1.39.52-.55.23-.12.03-.07.02-.11-.1-.27-.19-.47-.33-.31-.11-.17-.11-.32-.04-.23.06-.16.16-.3.21-.59.34-.36.27-.27.09-.08.12-.16.12-.4.16-.35.2-.32.13-.18.09-.35.18-.11.55.03.4.03.09.16-.01.03.05-.17.06-.09.14-.03.11-.07.15-.04.26-.22.25-.3.11-.73.39-.4.15-.8.32-.51.18-.5.12-.83.18-.44.12-.23.01-.54.04-.15.04.14.36.2.33.15.46-.01.26-.56.21-.19.12-.11.15-.25.3-.28.38-.25.29-.13.38-.25.86-.26.41-.19.2-.03.2.04.19.02.53.2.07 0 .03-.65.2-1.34.22-.6.07-.16.2.05.37.05.25.12.91-.05.43-.49.18-1.33.2-.9.14-.74.11-.57.03-.19-.02-.23.03-.37.08-.63.26-.28.83-.21.57-.11.5-.03.77-.05.39-.17.13-.5.2-.31.16-.04-.04-.59-.28-.23-.03-.31.04-.39.11-.13-.09-.23-.06-.41-.07-.84-.03-.72-.02-.57 0-1.84.24-.43.05-.66.05-.83.11-.52.07-1.62.26-.32.07.05.12.17.29.24.29.05.12.48.67.07.1.62.46-.01.22.29.43.16.24.23.11.21.21.21.17.5.38.22.23.1.08.8.6.45.37-1.52.43-.15-.23-.37-.34-.27-.2-.42-.08-.87.96-.13.47-.01.03-.77-.08-.58.02-1.17.21-.52.05-1.69.34-2.29.35-.96.3-.81.42-.39.04-1.2-.07.93 1.1-.24.05-.57.04-.59.14-1.08.24-1.57.18-.94.12-.8.09-.62.08-.48.1-.1.06-.01.28.18.09.07.17-.17.61.16.2.13.13.11.11.07.18.06.11.14.15.48.48.02.13-.03.1-.12.09-.19.08-.14.03-.05.08.08.09.44.23.57.18.12.12.15.07.05.06 0 .09-.06.24-.2.16-.13.14-.2.11-.2.06-.47.09-.45.07-.3.05-.65.18-.37.11-.3.07-.23.05-.38.12-.19.04-.11.02.06.07.01.12-.06 0-.28.08-1.33.24-.43.06-.36.03-.16-.12-.52.12-.58.09-1.06.19-.86.04.43.65.34.44.4.44.53.66.4.4.35.38.46.51.4.39.2.25.57.6 1.13 1.41.27.31.31.42.2.26.44.53.1.17 0 .08-.09.13-.03.1.38-.1.12.26.12.44.07.05-.03.2-.11.75-.54 1.71-.33 1.08-.2.55-.28.72-.06.1-.92-.1-.67.01-.49-.03-.5.06-.15 0-.03.31.12.26-.02.2.02.57.06.48.01.24-.04.74.08.08-.18.16.02.31-.1.08-.3-.05-.14-.02-.03.13-.02.08.05.01 0 .13.01.11.11.51.07.26.04.19-.02.32.02.19.02.39 0 .39.04.2.07.2.02.26.03.15 0 .04.08.25.06.27.09.57.1.78.07.64.01.22.21 1.34-.03.26-.03.07.09.77-.04.11-.07.2-2.26-.31.35 1.36 3.02 4.04-.16.04-.14.07.06.14-1.34.12-.28.03-.13.01-.42.03-.54.09-.47-.03-.25.09-.14.02-.55.03-.25.08-.41.04-.37.13-.23.01-.3.11-.27.02-.15.07-.36.06-.15.06-.33.04-.25.09-.45.1-.29.07-.39.08-.42.06-.48.14-.54.05-.14.04-.19.09-.2.02-.2-.09-.18.02-.51.03-.33.1-.54.1-.45.11-.26.08-.28.08.26.21.22.44.14-.01-.01.09-.28.22-.19.19-.41.23-.38.06-.67.09.05.2.3.27.13.33.1.32.18.43.12.3.02.23.27.57.19.36.4.2.17.08.36.1.34.08.18.06.29.08.41.14.18.21.14.48.1.25.01.28.12.22.13.15.23.1 1.23-.04 1.14-.19.45-.14.53-.21.4-.36.68-.82.44-.58.33-.37.5-.52.17-.16.26.05.42-.01.41-.08.38-.13.29-.18 1.31-.23 1.35-.21.54-.11 1.65-.36.03.04.14-.04.53.81 2.83-.6 1.4-.49.32-.12.95.36.53.14 4.84.9 1.22.07.06.08 0 .54.15.54.16.39.66.92.39.51.36.3.55.34.43.33.42.27.87.63.85.52 1.6-.43.47-.16 1.09-.2.78-.09.54.01.06-.22.32.11.53-.08.41-.06.57-.1.55-.1.18-.02.14.02.13.27.08-.02.71-.05.92-.15 1.16-.17.85-.11.86-.15 1.24-.16.95-.16 1.19-.15 1.09-.17.51-.05.88-.1.92-.04 1.8.07.23-.01.28.01.4.08.7.22 2.69.74 1.15.34.79.2.83.24 1.97.51 1.69.46 1.37.39.85.22.03 0 6.39 1.72 4.25 1.15 4.51 1.17.48.11 1.97.51 2.53.64.83.2.93.18 1.52.3 1.08.23 3.57.58 3.47.4.41.01 2.67.32 4.51.58 3.34.43 1.17.18 2.41-.08 5.06-1.08.37-.08 3.45-.88-2.17-4.31-.18-.41 2.95-.55.83-.12.52 0 .52-.03 1.9-.28 1.27-.2.73-.09.25-.04 2.72-.23 1.27-.19.87-.17 1.29-.23.43-.07.67-.06 1.95-.12.51-.01.37 0 1.42-.14 1.1-.14 1.27-.14 1.3-.16 1.45-.15 2.77-.34 5.17-.94 1.08-.18.25.5.5.74 1.67-.33 2.04-.45 2.17-.49 1.27-.31.63-.11z" /><path d="m449.63 258.46l-.37.35-2.26 2.13-2.37 2.22-.06.07-.94.88-.89.83-2.11 1.97-.97.9-1.59 1.48-.4.38-1.18 1.46-.34.42-.43.54-.24.3-.42.52-.32.4-.05.06-.28.35-.23.38-.6.99-.65 1.08 1.29.46.82.34.31.12.32.13 1.66.67.11.04 1.01.41.57.26 1.02.51.26.12 1.14.56.55.28.88.44.67-.31.09-.04.24-.11 1.83-.78 1.17-.51.31-.14.97-.32.3-.06.75-.17 1.41-.3.68-.15.65-.14.97-.22.8-.18.69-.16 2.35-.52.1-.02.73-.12.22-.03.74-.01.36.03.67.04.41.02 1.12.09.29.04.05-.56.16-1.82.02-.2.1-1.12.01-.06.04-.51.07-.81.07-.68 0-.17.01-.16-.1-.66-.01-.03-.11-.86-.05-.37-.11-1.08-.06-.32-.01-.1-.02-.11-.49-1.19-.48-1.19-.2-.28-.31-.44-.02-.09-.22-.79-.18-.71-.27-1.01-.34-1.14-.15-.44-.19-.56-.02-.05-.38-1.1-.53-1.25-.08-.16-.18-.41-.22-.47-.09-.2-.25-.55-.16-.33-.33-.66-.46-.92-1.27 1.12-2 1.75-1.58 1.41-.8.71-.47.45-.15.14z" /><path d="m401.26 282.27l.43.09.56.12 2.13.43.69.1 1.41.22.18-.98.03-.21.01-.18 0-.37 0-.12-.04-.5-.21-.7-.04-.07-.32-.61-.43-.74-.11-.21-.34-.63-.37-.98.13-.59.01-.05.18-.51.18-.48.06-.14.16-.74.02-.28-.02-.48 0-.1-.05-.4-.02-.08-.04-.19-.73.17-.58.13-.36.07-.42.08-.94.04-1.77-.06-.65-.03-.37-.05-.22-.08.44-.33.19-.19.13-.13.21-.25-.42-.09-.57-.17-.56-.21-.4-.12-.31-.08-.87-.17-.93-.08-.64-.02-.62.07-.54.11.12.39.01.43-.04.44-.03.1-.09.33-.27.32-1.08.66-.55.33-.53.32-.15.08-.08.05-.39.21-.83.41-.65.33-1.56.76-.59.31.11.1.18.28.06.1.19.31.37.85.11 1.11-.07.21-.07.2-.15.42-.15.4.5.03.38.18.41.22.43.2.72.37.58.18.66.07.64-.06 3.14-.95.34.02.55.11 1.97.41 1.67.36.88.18z" /><path d="m348.7 298.25l.3.25.95.73.32-.14 1.94-1.4 4.58-3.15 2.18-1.51 2.24-1.54 2.03-1.38.97-.66 1.01-.69 4.17-2.85 1.42-1.15.49-.14 1.73-.48 1.06-.3 1.25-.35 2.15-.6 3.16-.88 2.48-.7 2.43-.56 1.37.09 1.46.11.15-.4.15-.42.07-.2.07-.21-.11-1.11-.37-.85-.19-.31-.06-.1-.18-.28-.11-.1-.82-.73-1.69-1.35-.54-.42-.32-.37-.61-.68-.23-.74-.05-.18-.04-.13-.26-1.77-.07-.49-.06-.32-.1-.53-.04-.29-.01-.12-.08-.53.11-.41.13-.49.04-.14.46-1.6.07-.25.07-.57.05-.39-.2-1.95-.34-1.51-.16-.44-.17-.47-.52-1.42-.56-.87-.76-.68-.39-.36-1.15-.47-.65-.27-.87-.35-.08-.04-.13-.06-.38-.18-.37-.18-.32-.23-.64-.15-1.3.05-1.49.05-1.73.01-1.58-.01-.73-.05-.4-.08-.71-.15-.02-.01-.84-.18-1.02-.23-1.13-.2-.69-.04-.36-.02-.92.1-.39.04-1.75.54-2.3.79-.71.24-2.29.79-1.45.5-1.62.53-1.18.38-1.66.54-1.54.42-.99.27-.48.09-1.64.33-2.79.55-1.54.38.02 1.23.09.44.33 1.57.08.21.28.7.35.88.58 1.42.32 1.08.13.43.11 1.03.09.99.02.46.03 1.55.07.96.1 1.55.18 1.5.08.78.07.61.05.49.23 1.75 0 .05.01.14.03.31.01.14 0 .1.12 1.54-.19.39.01.36-.03 1.13-.12 1.11-.13.83-.05.34-.08.68.01.29.01.5.09.82.21.79.17.56.1.31.45 1.04.77 1.59.42 1.04.47 1.4.25.46.66.86.76.81.14.12.52.44z" /><path d="m424.07 273.91l.49-.4.29-.26.74-.65.53-.47.12-.1.18-.16.31-.41.11-.42.07-.67.05-.78.04-.48.03-.57-1.03-.04-.71-.11-.45-.08-.31-.08-.55-.15-.49-.18-.19-.1-.59-.32-1.05-.58-.34-.18-.35-.21-.43-.25-.12-.08-.39-.41-.09-.11-.21-.23-.33-.39-.42-.58-.12-.17-.44-.19-.47-.21-2.38-.8-.09-.03-.98-.33-.16-.06-.89-.28-.94-.3-.48-.2-.15-.11-.21-.16-.34-.33-.17-.09-.52-.29-.87-.4-.83-.27-1.36.13-.27.03-.96.11-.43.07-.51.08-.17.02-.46.05-.16.03-.26.05-.23.04-.49.09-.35.07-.45.16-.21.2-.08.26-.04.39-.02.11-.03.2 0 .02-.04.15-.05.22-.24.29-.46-.07-1.09-.19-.09-.02-1.05-.17-.11-.03-.5-.15-.31.56-.35.63-.16.46.4.08.24.13.43.24.46.26.73.42.31.15.07.03.49.06-.37.47-.34.63-.21.85-.1.4-.05.17-.09.35-.48.92-.17.45-.26.7-.24.6-.05.12-.09.16-.26.45.4.12.56.21.57.17.42.09-.21.25-.13.13-.19.19-.44.33.22.08.37.05.65.03 1.77.06.94-.04.42-.08.36-.07.58-.13.73-.17.04.19.02.08.05.4 0 .1.02.48-.02.28-.16.74-.06.14-.18.48-.18.51-.01.05-.13.59.37.98.34.63.11.21.43.74.32.61.04.07.21.7.04.5 0 .12 0 .37-.01.18-.03.21-.18.98.76.01.56 0 1.19-.01 1.2-.15.64-.16 2.5-1.03 1.02-.43.21-.1.49-.24.36-.27.68-.51.18-.16.81-.67.51-.41.43-.34 2.66-2.14.2-.16.9-.72.69-.55 1.6-1.28z" /><path d="m419.73 265.43l.21.23.09.11.39.41.12.08.43.25.35.21.34.18 1.05.58.59.32.19.1.49.18.55.15.31.08.45.08.71.11 1.03.04.05-.77.02-.26.01-.25.02-.26.09-.6.1-.26.05-.32-.06-.38-.07-.18-.21-.52-.84-2.18-.48-1.26-.66-1.74-.31-.82-.22-.56-.26-.58-.54-.77-1.53-1.81-1.08-1.07-.98-.43-1.45-.35-.81-.09-.08-.01-.68.02-.4.01-.99.11-.21.41-.06.18-.06.18-.13.27-.09.18-.39.15-1.01.18.26.53-.31.49-.63 1.25-.09.2-.35-.13-.57-.17-.03-.1-1-.04-.22.23-.7.77.05.33 1.65.61-.12.18-.47.44-.61.35-.57.23-.12.05-.14.05-.86.21.83.27.87.4.52.29.17.09.34.33.21.16.15.11.48.2.94.3.89.28.16.06.98.33.09.03 2.38.8.47.21.44.19.12.17.42.58.33.39z" /><path d="m453.71 277.08l-.8.18-.97.22-.65.14-.68.15-1.41.3-.75.17-.3.06-.97.32-.31.14-1.17.51-1.83.78-.24.11-.09.04-.67.31-.88-.44-.55-.28-1.14-.56-.26-.12-1.02-.51-.57-.26-1.01-.41-.11-.04-1.66-.67-.32-.13-.31-.12-.82-.34-1.29-.46-.25.41-.05.15-.14.37-.15.41-.9 2.47-.17.64-.13.49-.16.6-.71 2.78-.23.92.02.45.12 2.21.02.4.05 1.08.19 2.05.09 1.01.69.06 1.13-.03.5-.02.6-.02.29-.01 3.21-.22.93-.07 2.24-.15.66-.04.09-.01 2.52-.17 1.57-.11.88-.06.19-.01.09 0 2.52-.16 1.62-.12.15-.01.91-.07.63-.35.4-.33.77-.64 1.18-1.1.09-.09.2-.19.35-.38.38-.42 1.19-1.5.44-.56.43-.54.15-.18.35-.45.63-.96.93-1.43.23-.4.05-.09.3-.54.67-1.18.1-.17.45-.75.02-.23.02-.41.03-.89.04-.73.03-.28.01-.16-.29-.04-1.12-.09-.41-.02-.67-.04-.36-.03-.74.01-.22.03-.73.12-.1.02-2.35.52-.69.16z" /><path d="m394.64 305.97l-.05-.21-.01-.04-.02-.09-.11-.78-.21-1.26-.04-.27-.04-.2-.06-.26-.05-.24-.07-.35-.17-.6-.01-.03-.02-.06-.12-.44-1.24-.02-.14-.01-2.72-.06-2.72-.18-1.62-.07-1.34-.05-.8-.04-.56-.02-.14-.01-.7-.05-.65-.06-.93 1.16-.47.55-2.13 2.53-.85 1.01-.13.16-.45.54-1.78 2.18-.96 1.16-.17.21-.05.06-2.77 3.34-.44.54-1.7 2.09-.42.52-.63.75-1.22 1.47-1.54 1.85-.09.1-.09.11-.44.52-.12.14-.8.96-.48.56-1.1 1.3-1.44 1.7-.37.44-1.1 1.32-1.63 1.37-.95.66-.12.07-2.98 1.68-1.08.64-2 1.17-.43.28-1.18.76.25.17-.68.45.02.1 0 .33.01.2.12.23.2.21.45.28.38.17.4.15.66.17.26.09 2.17.67-.47.52-.07.08.3.03 2.24.42.48.09 1.99.46 2.19.43-.04.11.68.11.49.07.26.05.15.02.53.09.44.05.66.07.53.06.77.09.52.05.39.04.48.01.23.01.6.01.47.03.13-.01.16-.01.14 0 .6 0 .63 0 .46-.03.4-.02.29-.01.69-.02.82-.04.73-.05.8-.06 1.51-.12 1.09-.09.95-.09.75-.07.32-.04.95-.09.64-.06.28-.03.86-.1.7-.09.79-.1.62-.08.73-.1.32-.05.25-.03.92-.15.82-.13 1.09-.18.93-.18 1.01-.23.78-.19 1.6-.27 1.46-.3.29-.06 2.01-.39.13-.02.56-.11.28-.05.46-.09 1.92-.36 1.37-.27.39-.08.24-.05 1.72-.32 2.21-.38 0-.03-.13-.68-.51-1.96-.06-.27-.13-.43-.35-1.23-.11-.4-.39-1.39-.26-.95-.54-2.05-.02-.06-.45-1.68-.66-2.54-.7-2.68-.11-.5-.19-.85-.19-1.16-.02-.57-.02-.45 0-.18-.02-.6.07-2.04-1.13-.38-.33-.3-.42-.39-.27-.66-.11-.28-.23-.58-.05-.29-.3-1.51-.09-.5-.09-.34-.23-.86-.11-.41-.06-.22z" /><path d="m411.58 177.61l-1.41-.82-7.18-4.21-4.88-2.81-3.62-2.09-3.82-2.22-1.56-.92-.26.1-.44-.1-1.94-.61-.53-.16-1.03-.33-.91-.3-1.6-.41-1.99-.41-1.04.03-.45 0-.23-.1-.37-.39-.48-.46-.57-.11-.61.06-1.19.35-.21.08-.46.16-.53-.59-1.11.48-1 .43-.85.36-.6.27-.5.22-.19.1-.24.14-.16.15-.12.12-.07.12-.06.12-.05.1-.06.15-.07.24-.48 2.07-.11.53-.18.23-.31.13-1.03.35-1.22.41-1.17.4-.9.33-.53.17-.52.14-.17.06-.32.09-.31.15-.49.27-.52.36-.39.31-.3.19-.77.61-.33.25-.74.63-.1.17-.28.67-.06.29 0 .43.03.22-.03.2-.09.17-.1.13-.12.07-.27.11-.22.09-.32.09-.5.08-.64.1-.87.18-.48.12-.1.11-.35.09-.31.1-1.1.55-.45.27-.19.15-.11.25-.06.46.01.1.01.09.14 1.53.01.29.01.34-.01.46.18.37.25.45.07.13.03.2-.23.43-.02.09-.11.48-.09.59-.08.77-.01.07-.05.54-.04.26-.23.25-.1.18-.27.48-.28.44-.43.69-.22.24-1.7 1.1-.33.22-.26.26-.17.25-.2.41-.03.22-.5-.02-.71.1-1.4.32.05.21.15.18.09.23.15.62.04.12-.03.14-.04.23-.06.36 0 .09 0 .27.1.29.22.25.24.18.18.18.18.27.19.22.26.21.21.23.11.25.04.29-.09.74-.08.33-.14.4-.31.74-.06.26-.01.2-.12.17-.3.32-.07.09-.08.23-.02.29.06.35.11.39.04.28.02.12-.01.57-.14.71-.28.88-.1.97-.1.45 0 .28.09.64.36 1.65.16.43 7.69-.28 2.04-.21 1.51-.28 6.58-1.22 3.04-.58 10.11-1.36 5.04-.65 11.37-1.57 10.58-1.45 6.4-.97 3.89-.41 1.17-.06 1.44-.1.58.01 3.11.05 2.29.25 1.76.3 2.2.43 2.55.61 1.89.52 1.8.73 3.09 1.6-.08-.57-.19-1.4-.73-2.38-.86-1.8-2.31-3.39-2.95-3.06-1.23-1.03-.24-.19-1.8-1.35-4.55-2.81-4.68-2.7-1.55-.91-1.24-.72-2.07-1.21z" /><path d="m545.95 358.9l1.24.28 2.5.55 5.22 1.17 1.69.37 6.48 1.42 5.07 1.54 6.77 2.77 3.6 1.35 2.92 1.19 3.96 1.63 2.05.84.02-.02.66-.53 1.42-.81 1.46-.56 1.71-.59.52-.25 1.06-.51.83-.75.29-.38.46-.61.19-.31.72-1.15.44-.9 0-.67-.1-.27-.12-.34-.74-.53-.45-.33-2.17-1.8-2.41-2.01-1.47-1.28-.48-.51-.19-.2-.46-.68-.22-.91-.15-1.14-.14-.81.08-1.01.6-.79.39-.53 2.3-.5 2.16-.46 1.69-.51.93-.54.87-.84 1.1-1.23.08-.19.73-1.61.03-1.65-.44-1.21-.3-.82-.36-1.82-.1-1.81-.19-1.26-.52-.82-.12-.3-.3-.74-.54-1.21-.46-1.01-1.13-.66-1.54-.55-1.62-.7-.55-.23-1.94-.87-1.51-.93-1.45-1.11-.65-.7-.55-.54-.18-.18-.67-.91-.2-.69-.44-1.09-.65-.86-.05-.06-.49-.35-.49-.35-1.3-.76-.66-.31-1.06-.49-2.07-.4-2.38.12-.18.01-1.73.41-.44.14-.42.14-1 .02-1.03-.27-.77-.45-.41-.25-1.13-.72-.4-.6.53-.6 1.18-.96 1.18-1.03.45-.45.47-.48.19-.56-.24-.51-.67-.7-1.13-1.01-1.18-1.51-.12-1.06-3.82 2.35-2.31 1.17-.03.17.18.12.18.21-.04.13-.22.13-.25.06-.29 0-.22-.11-.2-.11-.16-.05-.14.03-.32.09-.35.12-.29.03-.54.04-.84.08-1.37.09-.71.05-.89.07-.5.05-.31.09-.16.03-.14 0-.22-.06-.36-.02-.34.03-.28.09-.48.33-.23.21-.14.18-.09.2-.06.28-.1.23-.24.14-.28.03-.37-.06-.24-.06-.26.02-.35.11-.3.12-.32.05-.39-.01-.3-.03-.43.03-.55.18-1.06.37-1.15.39-1.6.44-.74.17-.47-.01-.41-.06-.25-.03-.75-.04-1.05-.01-1.8.03-1.56 0-.68-.02-1.6.2-1.08.08-1.63 1.61-.54.54-1.76 1.75-1.57 1.64-1.27 1.31-3.42 3.52-1.14 1.16-.36.37-1.89 1.93-4.67 4.7-1.62 1.59-1.88 1.65-2.2 1.63-2.61 1.69-2.1 1.19-2.09 1.06-1.33.66.7.47.72.49 2.01 1.32 1.09.71.37.24.74.37.94.46.45.2-.26.27-.24.28-.19.26.17.15.34.31.64.53 1.39.87.69.64.72.68.59.55 2.5 2.34.2.19.29.27 3.71 3.4 1.45 1.34 2.19 2.01 1.25 1.15 2.51-.71 1.87-.52.14-.05 1.79-.5 1.74-.48.18-.05 1.09-.3 2.44-.68.05-.01-.12-.18 1.07-.27 2.01-.5.32.25 3.37-.86 1.19-.3-.16-.29 3.02-.73z" /><path d="m450.41 291.46l-.15.01-1.62.12-2.52.16-.09 0-.19.01-.88.06-1.57.11-2.52.17-.09.01-.66.04-2.24.15-.93.07-3.21.22-.29.01-.6.02-.5.02-1.13.03-.69-.06.07.86-.17 4.06-1.05 3.23-.32.99-1.07 3.63-.9 2.68-.89 2.93-.21 1.11-.21 1.11-.22 4.44.14 4.25.05 1.26-.16.84-.2 1.32-.3 1.22-.29 1.01-.29.83-.25.64-.1.24-.21.47-.24.42-1.22 2 4.79-.83 1.5-.31 1.1-.27.66-.18.47-.13 1.57-.51 1.09-.39.79-.3.75-.32 1.07-.37 1.01-.37.39-1.27.19-.58.67-1.43 1.05-2.21 1.22-1.61 1.88-2.48 2.53-2.56 1.46-1.36 2.51-2.34 1.86-1.64 1-.89.33-.27 1.91-1.6.95-.75.26-.21.45-.35 1.54-1.23.52-.33 2.93-2.1 2.56-1.76 3.6-2.49 1.01-.7 1.65-1.13.1-.07-.69-.45-2.05-1.12-.87-.41-1.97-.92-.28-.14-.33-.17-.39-.21-.45-.24-1.03-.56-.87-.47-2.43-1.54-.78-.49-2.78-1.78-.35.38-.2.19-.09.09-1.18 1.1-.77.64-.4.33-.63.35-.91.07z" /><path d="m530.06 317.64l.46.03 1.25-.02 1.29-.07 3.05-3.93 3.43-5.91.41-.7 1.05-1.64.87-1.35.58-1.04 1.83-3.26.06-.1.04-.07 1.56-2.85.53-.93.03-.06.71-1.25.41-.78.35-.65.35-.74.15-.32.65-1.77.21-.56.57-1.51.45-1.22.77-2.16.91-2.53.18-.54.46-1.33.22-.64.08-.22 1.04-2.97.66-1.85 1.24-3.45.83-2.31.49-1.39.28-.76.13-.37.39-4.14-.34-4.76-.06-.84-.38-1.53-.18-.42-.64-1.46-.78-1.4-.44-.77-.52-.93-.47-.85-2.05-3.58-.03-.06-.51-.88-.68-1.2-.11-.2-1.46-2.53-2.01-3.34-2.61-4.35-.91-1.58-.74-1.28-1.36-2.36-1.19-1.99-.21-.37-1.33-2.22-.9-1.52-1.4-2.32-.77-1.27-3.39-5.63-1.51-2.89-.15-.88-.24-1.38.58-3.29 1.41-2.5 1.78-2.07.66-.55 1.54-1.28-1.21.75-.76.47-2.25 1.4-2.95 1.81-7.24 4.47-5.18 3.18-.48.31-1.78 1.12-3.76 2.33-1.15.71-8.57 5.37-2.03 1.29-1.15.73 1.1 4.88.25 1.08.29 1.3.14.59.34 1.53.53 2.34.09.38.1.39.48 1.79.35 1.32.06.23.21.77.03.11.19.73.85 3.17.27 1.01.28 1.9.14.88.2 1.39.51 3.37.19 1.32.08.5.66 4.19.06.37.34 1.58.05.22.43 2.04.22 1.47.42 2.92-.05.93-.04.7-.06 1.22-.67 1.62-.48 1.15-.25.62-.11.26-2.55 2.8-.36.39-.32.22-.09.06-4.55 3.15-1.02.74-.5.31-1.49.99-6.39 4.18-1.74 1.14-.81.53-.45.29-1.96 1.27-.61.39-.28.18-.92.59-.62.41-.72.46-2.24 1.45-2.58 1.66-.92.6-2.11 1.45-2.23 1.54 1.04.6.39.11.28-.01.29-.1.29-.24.32-.19.54-.16.96-.12 1.8-.09.8-.08 1.47-.19.94-.08 1.38-.08.67 0 1.11 0-.17.37-.3.6-.27.57-.15.45-.11.36.01.49.04.37-.66.08.12 1.12.12.48.04.14.08.21.21.37.14.26.16.35.17.49.2.55.24.69 2.1.05 1.93.01 1.53.01 1.62-.01 3.85.01.12 1.06.15 1.18.35 1.51.46 1.79.9 3.42.99-.68.86-.62.59-.44.57-.36.49-.15.51-.06 1.18 0 3.57.08 3.77.11.33.01 2.58.05.84.12.36.17.23.4.22.74.22 1.24.03.55.43 0 2.22-.17 2.33-.18 1.18-.11.94-.16.89-.1.95-.07.05-.01.83-.02 1.38.28 1.16.4.25.27.56.8.29.22.25.15.37.26.31.27.35.22 1.31.8.46.26.62.17.57.04z" /><path d="m441.28 134.26l-1.06-.13-1.13-.1-2.41-.17-.79-.05-.3.94-.44 1.59-.18.55.03.32-.01.4-.1.46-.36.6-.33.55-.47.76-1.4 2.22-.37.19-3.6 1.82-1.41.87-.11.07-.31.2-.39.16-.2.09-1.15.11-1.1-.04-.56-.08-1.23-.37-.33-.1-2.32-.53-.9-.1-.46.01-1.37.36-1.16.3-4.37 1.16-2.66.72-.81.16-.79-.03-.98-.21-.92-.29-.45-.19-.27-.27-.61-.75-.76-.91-.65-.79-.38-.41-.25-.13-.44-.02-.5.03-.48.1-.46.27-.59.48.17.14.52.3.11.33.03.53.03.52.06.5.08.31.14.17.39.22.56.29.42.24.36.3.28.34.18.35.16.34.19.26.49.45.57.63.25.47.27.57.2.77.01.49-.03.22-.67 1.32-.02.75.01.44.01.21-.12.53.01.41-.02.39-.11.26-.3.61-.25.62-.05.38-.11.3-.18.35-.55.39-.74.5-.46.29-.4.2-3.33 1.39-1.47.59-1.25.41-1.17.4-.4.07-.22.16-.18.14-.31.07-1.74.01-.27.1-.54.21-.49.22 1.56.92 3.82 2.22 3.62 2.09 4.88 2.81 7.18 4.21 1.41.82 2.07 1.21 1.24.72 1.55.91 4.68 2.7 4.55 2.81 1.8 1.35.24.19 1.23 1.03 2.95 3.06 2.31 3.39.86 1.8.73 2.38.19 1.4.08.57 2.59 1.23 3.75 1.57 3.49 1.18 1.86.57 2.85.69 2.73.49 1.22.22 2.23.24 3.37.27 1.69-.02 1.61-.08 3.4-.39 5.29-.79 2.55-.49 3.5-.72 2.86-.66 2.57-.69 2.07-.57.7-.06 1.92-.23 6.41-.62-.17-1.48-.14-4.54-.1-3.09-.12-.92-.16-1.34-.1-.77-.05-.47-.39-3.16-.09-1.06-.01-.2-.06-.77-.31-3.94-.07-.91-.02-.44-.2-4.89-.37-7.3-.02-.37-.2-2.17-.14-1.53.03-1.87.22-4.85 1.36-4.54.97-3.19.84-2.43-1.65-.67-.77-.33-.41-.17-.69-.35-1.45-.68-2.35-1.19-1.11-.55-.94-.48-1.39-.91-.69-.46-.2-.04-3.62-.44-.79-.18-.21-.04-.45-.08-.59-.57-.4-.43-.39-.38-.31-.37-.77-.81-.38-.36-.32-.39-.4-.55-.48-.37-.94-.5-.62-.3-.47-.22-.07-.03-.08-.04-1.2-.13-.81-.01-1.81-.02-2.79-.05-1.96-.08-1.29-.08-1.32-.07-1.14 0-2.28.13-1.4.1-2.64.2-2.2.13-2.1.09-4.28.09-1.28-.01-1.28-.03-.42-.03-1-.12z" /><path d="m397.04 260.93l.15.1.39.34.36.34.23.23.35.26.31.18.5.15.11.03 1.05.17.09.02 1.09.19.46.07.24-.29.05-.22.04-.15 0-.02.03-.2.02-.11.04-.39.08-.26.21-.2.45-.16.35-.07.49-.09.23-.04.26-.05.16-.03.46-.05.17-.02.51-.08.43-.07.96-.11.27-.03 1.36-.13.86-.21.14-.05.12-.05.57-.23.61-.35.47-.44.12-.18-1.65-.61-.05-.33.7-.77.22-.23 1 .04.03.1.57.17.35.13.09-.2.63-1.25.31-.49-.26-.53 1.01-.18.39-.15.09-.18.13-.27.06-.18.06-.18.21-.41-.88.14-1.03.16-.16.02-1.38.22-.36.06-2.36.37-4.27.68-2.57.44-.58.09-1.63.28-1.02.17-.24.05-1.08.15-.6.02-2.14-.28-1.71-.23-.58-.05-1.65-.14-1.8-.07-.67-.02-3.33.11-1.38.1-.16.01-1.1.07-2.59.21-1.53.26.65.27 1.15.47.39.36.76.68.56.87.52 1.42.38.02 3.81.21.76.04.48.02.2.01 1.45 0 .22-.01.65-.03.31-.05.2-.04.04 0 .12-.02.35-.06.32-.06.56-.02.68.04.36.03.37.04.17.01.34.04.51.07.22.02.8.15.56.26.23.16z" /><path d="m370.17 250.11l-.35-.76-.01-.75-.01-.68-.01-.4 0-.29-.01-.3 0-.22 0-.28-.01-.14-.01-.45-.05-1.04-.02-.45-.11-2.4-.01-.18-.04-1.07-.13-1.99-.08-1.33-.03-.33-.04-.64-5.04.16-1.25.04-.16 0-.76.06-2.92.21-1.01.2-.11.02-1.37.27-1.04.4-1.73.68-1.11.61-1.15.83-1.19 1.1-.56.65-.82.97-.36.46-.52.68-.24.31-1.18 1.54-.11.16-1.35 2.02-.04.08-.17.3-.2.37-.12.22-.59 1.07-.31.66-1.05 2.23-.63 1.32-.17.36-.51 1.92-.24.92-.04.2-.33 1.76.01 1.28 1.54-.38 2.79-.55 1.64-.33.48-.09.99-.27 1.54-.42 1.66-.54 1.18-.38 1.62-.53 1.45-.5 2.29-.79.71-.24 2.3-.79 1.75-.54.39-.04.92-.1.36.02.69.04 1.13.2 1.02.23.84.18.02.01.71.15.4.08.73.05 1.58.01 1.73-.01 1.49-.05 1.3-.05.64.15-.24-.17-1.24-.89-1.75-1.3-.99-.74-2.38-1.78z" /><path d="m388.38 260.39l-.48-.02-.76-.04-3.81-.21-.38-.02.17.47.16.44.34 1.51.2 1.95-.05.39-.07.57-.07.25-.46 1.6-.04.14-.13.49-.11.41.08.53.01.12.04.29.1.53.06.32.07.49.26 1.77.04.13.05.18.23.74.61.68.32.37.54.42 1.69 1.35.82.73.59-.31 1.56-.76.65-.33.83-.41.39-.21.08-.05.15-.08.53-.32.55-.33 1.08-.66.27-.32.09-.33.03-.1.04-.44-.01-.43-.12-.39.54-.11.62-.07.64.02.93.08.87.17.31.08.26-.45.09-.16.05-.12.24-.6.26-.7.17-.45.48-.92.09-.35.05-.17.1-.4.21-.85.34-.63.37-.47-.49-.06-.07-.03-.31-.15-.73-.42-.46-.26-.43-.24-.24-.13-.4-.08.16-.46.35-.63.31-.56-.31-.18-.35-.26-.23-.23-.36-.34-.39-.34-.15-.1-.23-.16-.56-.26-.8-.15-.22-.02-.51-.07-.34-.04-.17-.01-.37-.04-.36-.03-.68-.04-.56.02-.32.06-.35.06-.12.02-.04 0-.2.04-.31.05-.65.03-.22.01-1.45 0-.2-.01z" /><path d="m325.85 151.39l-2.09.11-2.19.08-.87.02-6.03.16-2.12.05-.16-.83-.18-1.01-1.15.06-1.22.09-.87.08-.92.16-2.38.56-2.11.57-2.44.55-2.19.4-3.9.68-2.54.59-6.2 1.5-1.25.35-.44.2-.85.38-.94.27-.91.08-1.53.1-.85.18-1.11.29-.48.12-1.88.58-1.68.5-1.32.33-1.17.31-.19.05-1.53.5-1.36.53-.6.31-.05.14.34.14.42.08.02.13-.61.02.25.09-1.12-.02-.85 0-.85-.04-.84-.1-1.41 1.74-.69.93-1.85 2.24-2.86 3.73-3.07 3.91-2.82 3.42-1.02 1.12-.98 1.08-.82.9 2.3 1.09 1.12.55 1.04.51 1.1.53.24.12.36.17.41.2 3.48 1.68 3.08 1.47.17.08.7.34.17.08.88.44 3.86 1.9.42.21 1.63.75.56.26 1.42.71.92.47 2.55 1.16.92.46.91.54 2.36 1.34 3.19 1.88 2.08 1.34.7.69.36.6.01.42-.2.42-.05.08.67.12.1.02 2.46.66 2.54.85 1.8.94.51.31.47.29 2.74 1.69 3.27 1.9 2.29 1.32 3.46 2.05.25.14.07.04 2.28 1.35.56.34.68.39 6.55-3.02.37-.12 2.95-.78 1.42-.39 4.71-.94.12-.03 3.3-.56 2.41-.32 2.16-.27 1.98-.09 9.73-.41-.16-.43-.36-1.65-.09-.64 0-.28.1-.45.1-.97.28-.88.14-.71.01-.57-.02-.12-.04-.28-.11-.39-.06-.35.02-.29.08-.23.07-.09.3-.32.12-.17.01-.2.06-.26.31-.74.14-.4.08-.33.09-.74-.04-.29-.11-.25-.21-.23-.26-.21-.19-.22-.18-.27-.18-.18-.24-.18-.22-.25-.1-.29 0-.27 0-.09.06-.36.04-.23.03-.14-.04-.12-.15-.62-.09-.23-.15-.18-.05-.21 1.4-.32.71-.1.5.02.03-.22.2-.41.17-.25.26-.26.33-.22 1.7-1.1.22-.24.43-.69.28-.44.27-.48.1-.18.23-.25.04-.26.05-.54.01-.07.08-.77.09-.59.11-.48.02-.09.23-.43-.03-.2-.07-.13-.25-.45-.18-.37.01-.46-.01-.34-.01-.29-.14-1.53-.01-.09-.01-.1.06-.46.11-.25.19-.15.45-.27 1.1-.55.31-.1.35-.09.1-.11.48-.12.87-.18.64-.1.5-.08.32-.09.22-.09.27-.11.12-.07.1-.13.09-.17.03-.2-.03-.22 0-.43.06-.29.28-.67.1-.17.74-.63.33-.25.77-.61.3-.19.39-.31.52-.36.49-.27.31-.15.32-.09.17-.06.52-.14.53-.17.9-.33 1.17-.4 1.22-.41 1.03-.35.31-.13.18-.23.11-.53.48-2.07.07-.24.06-.15.05-.1.06-.12.07-.12.12-.12.16-.15.24-.14.19-.1.5-.22.6-.27.85-.36 1-.43 1.11-.48-1.34-1.47-1.83-.45-1.62-.39-.2-.38-.93-.66-.92-.64-.65.05-.1.01-.66.11-.27.03-.73-.25-1.92-.71-.62-.14-.47-.18-.51-.17-.87-.1-.78-.07-.44-.11-.4-.02-.9-.04-.38-.04-.56 0-.56-.01-.25.02-3.04.18-.49-.04-.32.08-1.13 0-.63-.06-1.17-.08-3.77-1.12-1.44-.36-1.26-.36-.83-.25-1.21-.27-1.01-.24-.16.08-.89-.22-2.88-.69-1.08-.26-1.94-.47-1.16-.3-1.03-.14-.96 0-2.46.07-1.65.1z" /><path d="m468.08 266.08l-.2-.04-.42-.24-.45-.32-.39-.02-1.23.21-.81.16-.19.11-.14.31-.02.14-.16.07-.67.12-.85.16-1.08.19.01.1.06.32.11 1.08.05.37.11.86.01.03.1.66-.01.16 0 .17-.07.68-.07.81-.04.51-.01.06-.1 1.12-.02.2-.16 1.82-.05.56-.01.16-.03.28-.04.73-.03.89-.02.41-.02.23-.45.75-.1.17-.67 1.18-.3.54-.05.09-.23.4-.93 1.43-.63.96-.35.45-.15.18-.43.54-.44.56-1.19 1.5-.38.42 2.78 1.78.78.49 2.43 1.54.87.47 1.03.56.45.24.39.21.33.17.28.14 1.97.92.87.41 2.05 1.12.69.45 2.23-1.54 2.11-1.45.92-.6 2.58-1.66 2.24-1.45.72-.46.62-.41.92-.59.28-.18.61-.39 1.96-1.27.45-.29.81-.53 1.74-1.14 6.39-4.18 1.49-.99.5-.31 1.02-.74 4.55-3.15.09-.06.32-.22.36-.39 2.55-2.8.11-.26.25-.62.48-1.15.67-1.62.06-1.22.04-.7-4.42-.03-1.7-.01-.12 0-1.7.01-.94 0-.81 0-.21 0-1.5.07-.85.18-.89.26-1.11.34-.27.08-.33.1-.47.04-1.85.05-.17.01-1.4.04-.59.02-1.64.07-1.96.08-.6.02-.66.03-.99-.06-1.01-.08-1.31-.13-.62-.09-.6-.13-2.28-.65-2.39-.67-.33-.11-.58-.17-.24-.04-.18-.03-.62-.06-.54.09-.95.17-1.29.26-.5.03-.23-.05z" /><path d="m449.26 258.81l.37-.35.15-.14.47-.45.8-.71 1.74-2.33.42-.8.28-.53.43-1.09.09-.23.24-.89-1.2-.78-.83-.54-.34-.22-.8-.52-.5-.33-1.23-.81-.62-.44-.46-.34-.48-.35-1.71-1.15-.24-.16-.51-.29-1.23-.71-.1-.05-.3-.15-.32-.16-.97-.49-1.23-.41-.55-.19-1.86-.56-.63-.19-1.16-.27-.85-.19-.39-.09-1.3-.28-1.41-.31-.93-.21-1.35-.31-.97-.22-.24-.04-2.67-.43-1.25-.17-.13-.02-1.32-.19-1.19-.17-.48.89-.23.43-.56 1.03-.27.52-.5.94-.16.29-1.52 2.8-.07.12-.33.61-.11.2-.04.06-.23.43-1.29 2.14-.59 1.02-.05.1-.09.19.03.12.01.16-.16.36-.03.06-.3.6-.29.59.99-.11.4-.01.68-.02.08.01.81.09 1.45.35.98.43 1.08 1.07 1.53 1.81.54.77.26.58.22.56.31.82.66 1.74.48 1.26.84 2.18.21.52.07.18.06.38-.05.32-.1.26-.09.6-.02.26-.01.25-.02.26-.05.77.38.01.65.02 1.88.13.56.03 1.64.19.52.05 3.49.22.62.04 1.3.06 1.59-1.48.97-.9 2.11-1.97.89-.83.94-.88.06-.07 2.37-2.22 2.26-2.13z" /><path d="m602.56 188.67l.67.22.5.26.23.39.03.44-.28.4-.65.39-.84.25-.91-.07-.88-.27-.94-.38-1.79-.85-1.3-.44-.94-.05-.81.15-1.38.4-1.44.68-.45.46-.02.37.26.34.73.2.9.13.43.23.16.63-.4.87-1.39 1.54-.21.27-.79.95-.56.74-.24.52-.01.08-.01.35.35.54.33.6-.02.11-.07.46-.11.03-.25.07-.23.06-.88-.08-1.06-.19-.87.08-.48.42-.19.44.02.2.22 2.45.02.24 0 1.6-.41 1.35-.5 1.23-.78.78-.05.05-.93.36-1.01-.02-.92-.18-.94-.07-1.09.05-.46.04-.89.09-1.14.24-.72.19-.51.2-.67.23-.06.63 1.69 1.5 1.38 1.07.89.73.91.44.52.35.24.43-.21.74-.33.76-.35.75-.33.5-.06.45.28.47.92.42 1.93.19 1.16-.06 1.15-.11 1.18-.14 1.21-.11 1.33-.21 1.3-.13.93.08.63.19.3.38.05.38-.22.51-.07.08-.41.46-.61.47-.41.7-.09.61.24 1.23.33.66.6.41.66.07.48.06 2.07-.09 1.41.09.88.36 1.31.62 1.29.53 1.06.41.29.41.03.51-.03.57-.48.99-.58 1.02-.2.37-.72.26-.87.07-1.13.11-.17.1-.55.33-.62.69-.24.54-.04.35.1.45.13.43.25.7.32.46.12.42-.17.55.08.41.24.57.06.16-4.5.55-.62.08-2.52.31-4.1.5-.39.05-2.08.26-3.41.42-7.1.87-1.09.13-3.11.49-6.41 1.17-.21.04-7.74 1.44-2.76.5.68 1.2.51.88.03.06 2.05 3.58.47.85.52.93.44.77.78 1.4.64 1.46.18.42.38 1.53.06.84.34 4.76-.39 4.14-.13.37-.28.76-.49 1.39-.83 2.31-1.24 3.45-.66 1.85-1.04 2.97-.08.22-.22.64-.46 1.33-.18.54-.91 2.53-.77 2.16-.45 1.22-.57 1.51-.21.56-.65 1.77-.15.32-.35.74-.35.65-.41.78-.71 1.25-.03.06-.53.93-1.56 2.85-.04.07-.06.1-1.83 3.26-.58 1.04-.87 1.35-1.05 1.64-.41.7-3.43 5.91-3.05 3.93 1.08-.08 1.6-.2.68.02 1.56 0 1.8-.03 1.05.01.75.04.25.03.41.06.47.01.74-.17 1.6-.44 1.15-.39 1.06-.37.55-.18.43-.03.3.03.39.01.32-.05.3-.12.35-.11.26-.02.24.06.37.06.28-.03.24-.14.1-.23.06-.28.09-.2.14-.18.23-.21.48-.33.28-.09.34-.03.36.02.22.06.14 0 .16-.03.31-.09.5-.05.89-.07.71-.05 1.37-.09.84-.08.54-.04.29-.03.35-.12.32-.09.14-.03.16.05.2.11.22.11.29 0 .25-.06.22-.13.04-.13-.18-.21-.18-.12.03-.17 2.31-1.17 3.82-2.35 2.64.92.35.12 1.53.52 1.52.51.97.35 3.03 1.07 1.19.4 2.62.89.39.11.65.19 2.65.77 1.08.31 3.5.84.59.17 2.86.82.35.1 1.05.42 2.18.87 4.32 2.08 3.59 1.71 3.95 1.76 1.99.78 1.02.4 2.76.98 1.71.59.67.19 5.17.07 1.93.18.2-.56 2.31.19.03-.19-.02-1.8 6.18-1 2.24-.57 4.34-1.06-.06-.68 2.23.3 9.05 1.28 7.39 1.03 3.12-8.08 1.23-3.35-.21-.28-.09-.6.41-1.5.56-2.61.53-2.63 0-.28-.77-.03-.33-1.31-.33-.85-.09-.56.12-.51.38-.42.54-.45.68-.33.64-.4.25-.24.03-.15-.22-.41-.61-1.01.18-1.32-.67-.65.07-.84.2-.02 2.18.77 1.1-.49.48-.49.39-.08.27-.17.5-.38.25-.06.31.03.23.08.17.12.03.2.02.39.03.08.49.37-.13.32-.16.44-.01.14.25.1.56-.09.95-.23 2.38-.53 1.32-.33-.01-.08 1.36-.65.73-.08.35 0 .21.22.48.74.59.83.55.88.37.53 3.34-.7 1.64-.32 2.95-.58 2-.34 3.46-.86 3.99-.56-.1-1.12-.02-.63-.32-.07-4.57.34-.11-.17.01-1.57 3.98-.51 3.84-.3 3.79-.21 2.24-.34 6.93-.68 3.03-.46 2.46-5.95.27-.65.48-1.14 1.16-2.79.14 0 1.17-2.78-3.94-.16.6-4.12.64-4.21-1.41-.16.07-.26.24-4.81.17-2.78-5.26-.91-8.2-1.39-.52-.08-8.17.34-6.42-4.93.29-1.45.24.03 1.14-5.2 1.04-5.29-1.82-.12.02-.31-.36-1.78-.06-.82-2.42 0-1.71 0 .24-10.31-1.18-6.72-.02-.23-.15-.1-.89-.55-7.12-4.69.08-.07.83-.68 1.28-1.72 1.37-2.33.32-.8.99-2.48.8-1.61.08-.27.83-1.65.13-.25.22-.28.06-.19.47-1.37.51-1.8.09-.35.19-1.12.09-.99 13.53 6.42-.05.11-.03.11 0 .11.02.12.05.11.06.11.09.1.11.09.85.4.24-.06.21-.08.19-.1.16-.12.16-.21.07-.18.01-.19-.07-.19-.12-.17-.18-.16.15-.29.24-.44.24-.45.26-.43.26-.42.29-.45.3-.43.31-.43.33-.44.63-.78.16-.16 1.4-1.79.86-1.14 1.13-1.51 2.3-3.01 2.03-2.61 2.03-2.65.45-.58.41.34-.13-.48-.18-.16 7.62-6.33-.8-.37 4.14-3.45-8.03-2.18-.62 1.09-3.98-.62-4.16-.8-.35.05-.6-1.17-.71-1.4-.89-1.86-1.18-2.43-3.99-.01-.09-.23-1.51-1.62-1.15-.65-3.54-3.8-.4-.6-.34-.62-.12-.62-.41-2.3-.15-.53-.43-.85-.61-.62-4.23-3.08-.33-.25-.49-.35.52-1.21.13-.55.13-.16 2.93-5.53.17.07.15-.11 1.48.81.46-.53 1.34-1.84 1.23-1.76 3.55.5.52-.36-.55-.28-1.95-.99-2.18-1.12-.29-.14-.65-.16-.58-.04-1.19.05-1.29.02-1.7-.05-2.96-.17-.44-.06-.58-.14-.33-.1-.41-.23-.44-.29-.16-.13-.28-.4-.33-.98-.3-.99-.47-1.48-.65-1.82-1.32-3.3-.89-2.2-.35-1.14-.56-1.21-.31-.54-.7-.94-.64-.64-.86-.78-.74-.51-4.71-2.85-.55-.35-.48-.3-.42-.31-.28-.28-.42-.45-.29-.37-.27-.39-.57-1.2-.96-2.28-.29-.56-.32-.56-.39-.54-.44-.52-.5-.51-.67-.6-.58-.45-1.11-.7-.61-.36-.73-.47-.66-.31-.71-.34-1.01-.37-.4-.12-.65-.23-.69-.25-.76-.3-.59-.27-.24-.14-.39-.26-.27-.29-.19-.32-.07-.29-.03-.34-.11-.31-.2-.31-.26-.29-.54-.44-.38-.42-.23-.35-.12-.36-.07-.38.08-.27.17-.44.09-.28.07-.31-.02-.41-.08-.26-.22-.18-.45-.21-.65-.29-.4-.22-.38-.3-.35-.33-.18-.3-.02-.23.12-.22.21-.38.15-.34.02-.31-.01-.17 0-.44.09-.54.2-.4.3-.34.36-.24.45-.22.44-.2.66-.22.66-.2.64-.21.33-.22.34-.31.27-.36.13-.3.12-.33.18-.59.1-.49.09-.25.09-.44-.04-.3-.13-.3-.26-.3-.19-.15-.38-.27-.46-.25-.59-.26-.64-.28-.45-.15-.41-.13-.26-.05-.9-.22-.78-.26-.7-.2-.6-.06-.35-.09-.71-.04-.42.07-.42.09-1.35.56-.31.2-.44.17-.63.23-.35.05-.24.01-.61.01-1.27-.19-.48-.12-.41-.2-.79-.48-.15-.06-.31-.11-.81-.24-.83-.39-.56-.29-.22-.23-.49-.34-.58-.49-.54-.42-.8-.72-.44-.41-.17-.1-.3-.03-.95.06-.26.1-.43.14-.26.11-.28.13-.27.11-.57.4-.37.46-.3.38-.4.5-.41.25-.6.14-.77.09-.49.1-.73.03-.48.04-.22-.02-.72.21-1.18.19-.77.05-1.11.14-.27.03-.53.09-1.02.31-.63.14-.29.1-.33.1-.56.09-.73.06-.2.04-.63-.14-.37-.17-.25-.23-.02-.43.11-.18.48-.43-.1-.38-.02-.47-.08-.18-.5-.31-.39-.1-.83-.01-.53 0-.65-.14-.44-.14-.73-.33-.38-.2-.34-.29-.07-.07-.17-.28-.09-.17-.21-.2-.05 0-.23 0-.85-.12-1.01-.12-.91-.09-.98.03-.93.03-.75-.02-.8-.08-.96-.04-.54-.07-.56-.06-.6-.14-.3-.05-.7-.16-1.4-.48-.5-.07-.75-.12-1.12-.29-.82-.07-1.05-.06-1.08.13-1.11.35-.53.23-.7.45-.2.21-.37.31-.63.46-1.66.96-.31.14-1.49.52-3.44 1.02-1.32.4-2.68.83-.7.22-.8.22-.82.18-2.01.31-.85.08-.85.08-1.64.05-1.63-.05-1.62-.1-1.6-.21-1.49-.26-1.51-.35-1.46-.43-1-.36-.69-.28-1.1-.52-1.22-.63-1.05-.66-1.82-1.3-.64-.44-.19-.18-1.38.88-1.53 1.12-.63.64-.43.74.03 1.01.99.78 1.8.92 1.51 1.2.73.8 1.07.49.9.52.82.52.62.52.27.62.1.81-.4.58-.56.29-1.11.16-1.44.27-.72.38-.22.37-.02.29.47.49.92.08 1.64-.08 1.38-.1 1.11.05 1.1.22 1.15.39.95.5.93.3.84.18 1.39.36.66.32.57.33.58.37.32.43.08.29.04.59-.04.41-.13.45-.38.64-.1.34.01.39.03.35-.03.42-.05.38.01.36.16.45.27.5.25.34.31.37.12.26.13.28-.17 1-.29.92.11.66.12.56.02.3-.4.48-.57.51-.45.16-.79.27-.74.34-.25.39.19.37.53.26 1.74.32.96.22.68.34.24.38-.09.38-.24.22-1.25.2-3.09.47-.99.32-.47.43-.18.5.15.7.03.65-.31.69-.39.83-.91 1.25-.85 1.65-1.03 1.3-1.4 1.33-1.04 1.02-.59.99.06 1.01.05.14.42 1.05.39.9-.09.71-.73.93-.85 1.02-.15.53.74 1.47.59.57.51.15.38-.11.25-.32.37-.43.51-.36.8-.25 1.04-.08.96.12.69.18.64.38.3.38.21.63.06.47.28.51.14.12.32.28.63.28.59.13.58-.01.37-.08 1.34-.51.93-.73.85-.85.59-.7.64-.85.45-.46.44-.22.75-.04.3.3.4.63.56.95.52.78.15.43.03.5.06.27.19.17.31.23.2.28.03.21.02.17-.02.34.04.25.16.25.43.32.48.15.52.01.84-.2.5-.14.87-.08.98-.13.53-.12.55-.04.69.08.79.24.52.24.54.39.29.56-.22.65-.28.46-.2.65-.14.49.06.14.52.22.96.31 2.71.38 1.83.36 2.16 1.05.99.51.67.65.45.65.14.89.38 3.89.12 1.14-.11.61-.47.67-.77.82-1.37 1.4-1.63 1.42-2.33 1.82-1.37 1.26-.74.8-.48.41-1.02.63-1.22.87-.78.99-.08.1-.29.74-.08.53.18.27.33.18 1.11.49 1.71.27 1.59.3 2.11.57 1.09.51.21.08.51.18 1.14.09.49.05 1.08.12 1.3.24.85.25.83.66.53.64.15.35.14.8.23 1.04.08.39.33 1.06.35.83.18.52-.08.12-.2.34-.61.3-.69.06-.63-.22-.71-.17-1.47-.09-.95.06-.69.11-.62.16-.73.27-.59.36-1.58.6-1.04.33-1.1.27-.81.35-.94.42-.8.39-.99.21-1.15.22-.87.3-.69.53-.63.59-.23.43-.11.44.03.46.04.07.16.33.35.66.73.67 1.17.55.55.17.7.21 2.34.47 2.05.43 4.24.85.6.08.26.04 1.24-.24 2.85-.6 1.58-.36 1.86-.43.28-.06 2.64-.64 1.48-.4.98-.33.86-.3.97.09.65.37.81.84.2.31.14.22.74 1.15.62.64.99.52 1.15.29 1.24.06 1.34.14.71.16.47.21.2.3-.08.34-.34.34-.36.23-.36.12-.63.03-2.91.15-2.02.07-1.93.53-3.71.9-2.55.28-1.4.45-.15.23-.1.16.35.38.89.31z" /><path d="m367.15 317.37l.63-.75.42-.52 1.7-2.09.44-.54 2.77-3.34.05-.06.17-.21.96-1.16 1.78-2.18.45-.54.13-.16.85-1.01 2.13-2.53.47-.55.93-1.16-.38-.04-1.16-.07-2.04-.01-1.6.07-.9.08-1.09.09-1.47.19-.72.09-1.59.26-.06.01-.75.13-1.92.36-.47.08-1.92.34-.76.13-.82.13-1.24.2-1.86.28-.81.11-1.34.17-.88.03-1 .02-.55-.11-.78-.27-.13-.08-.65-.39-.78-.55-.19-.15-.77-.59-2.45-1.85-3.54 1.55-2.72 1.37-1.29.78-.71.44-.75.47-.88.65-.39.42-.6.83-.53.69-.73.78-1.28 1.29-1.46 1.47-2.3 2.13-3.27 2.93-1.26 1.04-3.12 2.55-1.34 1.36-.04.06-.46.77-.37.87-.02.05-.07.21-.27.63-.23.52-.1.16-.5.26-.65.36-.18.08-2.08.56-2.62.69-.35.13-.46.27-1.49 1.07 1.66 1.06 2 1.21 2.11 1.34 1.01.65.7.46 1.25.79.22.15 1.17.74.3.19.55.37 1.48.97 1.13.93.11.09.91.59.62.29.76.35.17.08.63.28.4.18.81.36.75.36.84.4.2.09.5.24.82.39 1.72.83.42.11.35-.03.65-.35.4-.21.66-.36.78-.21.64-.01.67.09.56.11.36-.3 1.16-.97 1.25-.97 1.41-1.08 1.05-.82.43-.27.49-.32 1.18-.76.43-.28 2-1.17 1.08-.64 2.98-1.68.12-.07.95-.66 1.63-1.37 1.1-1.32.37-.44 1.44-1.7 1.1-1.3.48-.56.8-.96.12-.14.44-.52.09-.11.09-.1 1.54-1.85 1.22-1.47z" /><path d="m375.26 161.78l.21-.08 1.19-.35.61-.06.57.11.48.46.37.39.23.1.45 0 1.04-.03 1.99.41 1.6.41.91.3 1.03.33.53.16 1.94.61.44.1.26-.1.49-.22.54-.21.27-.1 1.74-.01.31-.07.18-.14.22-.16.4-.07 1.17-.4 1.25-.41 1.47-.59 3.33-1.39.4-.2.46-.29.74-.5.55-.39.18-.35.11-.3.05-.38.25-.62.3-.61.11-.26.02-.39-.01-.41.12-.53-.01-.21-.01-.44.02-.75.67-1.32.03-.22-.01-.49-.2-.77-.27-.57-.25-.47-.57-.63-.49-.45-.19-.26-.16-.34-.18-.35-.28-.34-.36-.3-.42-.24-.56-.29-.39-.22-.14-.17-.08-.31-.06-.5-.03-.52-.03-.53-.11-.33-.52-.3-.17-.14.59-.48.46-.27.48-.1.5-.03.44.02.25.13.38.41.65.79.76.91.61.75.27.27.45.19.92.29.98.21.79.03.81-.16 2.66-.72 4.37-1.16 1.16-.3 1.37-.36.46-.01.9.1 2.32.53.33.1 1.23.37.56.08 1.1.04 1.15-.11.2-.09.39-.16.31-.2.11-.07 1.41-.87 3.6-1.82.37-.19 1.4-2.22.47-.76.33-.55.36-.6.1-.46.01-.4-.03-.32.18-.55.44-1.59.3-.94.79.05 2.41.17 1.13.1 1.06.13 1 .12.42.03 1.28.03 1.28.01 4.28-.09 2.1-.09 2.2-.13 2.64-.2 1.4-.1 2.28-.13 1.14 0 1.32.07 1.29.08 1.96.08 2.79.05 1.81.02.81.01 1.2.13.08.04.07.03.47.22.62.3.94.5.48.37.4.55.32.39.38.36.77.81.31.37.39.38.4.43.59.57.45.08.21.04.79.18 3.62.44.2.04.69.46 1.39.91.94.48 1.11.55 2.35 1.19 1.45.68.69.35.41.17.77.33 1.65.67.09-.25 1.11-3.21 1.23-3.34.74-2 1.53-4.13 1.42-3.82 3.6-9.95 1.42-3.99 1.37-3.55-1.13-.17-.66-.25-.31-.31-.02-.46.1-.39.01-.42-.1-.22-.6-.61-7.19-6-4.94-4.08-2.61-2.12-1.3-1.06-1.11-.98-2.64-2.6-.8-.81-.31.22-1.93 1.68-2.58 2.18-3.29-3.14.23-.04 3.8-.51-1.56-1.58-21.09-21.3-2.03-2.06 2.62-.54-1.28-1.66 3.64-.27.24-.07 1-.14-.57-.96-.72-1.08-.35-.64-.11-.56-.1-.77-.1-.73.01-.75.32-.81.34-.65.18-.62 0-.93-.03-.75.07-.69.47-1.79.09-.62.05-.6.04-1.39-.26-1.55-4.97.3-.14-.82-9.92.67-2.02-2.99-.4.1-8.46 5.8-.27.05-1.12-2.26-13.08 1.69 1.81 3.78.85.75 2.01 1.27.28.31-.19-.02-.2.01 0 .11-2.27.95-2.72 1.11 1.02 1.3-2.77.59-.2.11-.21-.03.05-.47-.18-.5-.86-1.58-.97-1.72-.87-1.56-.38-.66-.45-.73-.6-.64-.91-.58-.86-.37-.99-.38-2.84-1.03-2.33-.83-.98-.37-.32-.18-.28-.16-1.19-.85-2.28-1.66-1.57-1.06-1.89-1.08-1.24-.72-.78-.49-.78-.55-.78-.56-.8-.59-.76-.62-.92-.8-.73-.62-.65-.57-.45-.32-.42-.21-.45-.08-2.44-.11-1.15-.07-.69-.05-.56-.22-.35-.33-.12-.42.07-.39.13-.35.12-.35.05-.32-.05-.36-.14-.31-.25-.32-.33-.4-.61-.65-.59-.63-.35-.43-.25-.34-.17-.38-.06-.39.08-.37.22-.36.36-.33.64-.53-.25-.03-1.72-.5-3.01-.87-1.48-.68-.46.05-.46-1.13-.35-.07-.48-.56-.61-.45-1.14-.58-1.28-.81-1.9-1.16-1.14-.18-.51-.05-.61-.06-.68-.44-.14-.44-.09-.18-.92-.48-4.83-1.23-.8-.38-2.74-.43-2-.23-2.35-.74-1.5-.57-.62-.22-2.51-1.01-3.48-1.35-1.36-.32-3.16-1.21-.27-.1-1.06-.47-2.19-.77-1.75-.59-.98-.74-.64.08-.92.58-.24.14-.34.48-.97.49-1.91.58-1.67.35-.04.01-1.19.18-1.85.36-.38-.05-.62-.27-.55.4-3.94 1.72-.68.36-2.28 1.04-.12.02-1.12.21-2.29.05-.31.04-.53.31-.32-.03-2.27 0-2.64.39-1.25.33-.63.25-2.13 1.36.5 1.37-2.73.73.44.98-.47.04 5.65 12.14 1.17 2.53-.44.2-2.55 1.02-7.67 3.09-6.78 2.73-2.74.22-4.4.37-5.24.46-.11-.01-1.42.5-1.7.77-1.18.36-1.99.29-.27-.03-1.15-.26-.83.07-.14.09-.6-.66-.2-.31-2.08-2.85-.31-.31-.45-.33-3.09-1.88-.86-.53-.81-.58-.74-.63-.16.07-.71-.04-.5 1.05-1.22 1.13-1.13.93-.54.22-.95.18-1.29.49-2.48.8-6.28 2.11-1.88 1.33-.32.61-1.37-.08-.04.18 3.04.17 7.56.33 7.08.33 1.67.1 6.17.05 3.58.19 1.04.15.42.1.49.11.84.33 2.25 1.36.61.36 1.33.76 2.19 1.29 1.39.74.73.43.19.12 1.03.7 2.68 1.31 1.23.63 1.03.32.9.32 1.97.42.11-.23 1.52.32 5.3 1.08.29.06 1.33.24.29.18.43.36.28.35 1.28 2.16 2.89 4.86.37.58.48 1.07.61 1.44.61.87 1.2 1.74.75 1.03 1.14 1.59.84.93.63.61 2.43 2.34 2.6 2.79.7.76 1.76 1.92.75.89.08.25.46 2.19.6 4.09.1.78.15 1.21.14 2.03.02.23.03.72.02.22-.06 2.1-.08 1.66-.09.51-.14.4-.23.36-.87 1.23-.93 1.2-.59.82-1.11 1.55-1.54 2.3-.79 1.17-.43.56-.21.34-.09.33.01.36.07.33.11.28.13.23.08.18.01.18-.03 1.47-.06.92-.22 1.38-.13 1.3-2.85 2.29.46 4.65.25 2.51.18 2.07.15 1.73.24 2.57.17 1.17.48 2.94.1 1.06.02.38.18 2.34.12 2.72.09.97.37 2.14.18 1.01.16.83 2.12-.05 6.03-.16.87-.02 2.19-.08 2.09-.11 1.65-.1 2.46-.07.96 0 1.03.14 1.16.3 1.94.47 1.08.26 2.88.69.89.22.16-.08 1.01.24 1.21.27.83.25 1.26.36 1.44.36 3.77 1.12 1.17.08.63.06 1.13 0 .32-.08.49.04 3.04-.18.25-.02.56.01.56 0 .38.04.9.04.4.02.44.11.78.07.87.1.51.17.47.18.62.14 1.92.71.73.25.27-.03.66-.11.1-.01.65-.05.92.64.93.66.2.38 1.62.39 1.83.45 1.34 1.47.53.59.46-.16z" /><path d="m487.57 304.2l-1.53-.01-1.93-.01-2.1-.05-.24-.69-.2-.55-.17-.49-.16-.35-.14-.26-.21-.37-.08-.21-.04-.14-.12-.48-.12-1.12.66-.08-.04-.37-.01-.49.11-.36.15-.45.27-.57.3-.6.17-.37-1.11 0-.67 0-1.38.08-.94.08-1.47.19-.8.08-1.8.09-.96.12-.54.16-.32.19-.29.24-.29.1-.28.01-.39-.11-1.04-.6-.1.07-1.65 1.13-1.01.7-3.6 2.49-2.56 1.76-2.93 2.1-.52.33-1.54 1.23-.45.35-.26.21-.95.75-1.91 1.6-.33.27-1 .89-1.86 1.64-2.51 2.34-1.46 1.36-2.53 2.56-1.88 2.48-1.22 1.61-1.05 2.21-.67 1.43-.19.58-.39 1.27-.24.76-.22 1.15-.33 1.83.24 2.4.09.84.19 1.84 1.27 3.59.78 1.35.35.62 2.45 4.26 2.32 3.36 1.57 2.29 2.57 4.41.83 1.42.4.67.24.44 2.04 3.72 1.09 1.99.1.17 2.83 4.87 1.68 2.89 1.66 2.87 2.29 4.47 1.4 2.72 2.83 5.5 9.43-1.62 28.55-4.92 14.25-2.45.06.84-.23 1.07.14.6.39.56.44.93.2.78.02.62-.05.71 2.4-.78 1.08-.22.45-.07 1.19-.19 1.56-.21 1.08-.05.25 0 1.17-.06 2.09-.06.32-.01 1.3-.05.39.1.17.13.35-.12-.05-.19-.14-.34-.32-.94-.32-1.38-.02-.09-.01-.06-.3-1.38-.16-.76.04-.56 0-.05 1.37-.2.77-.11 1.36-.21.13-.02 1.14-.18.61-.17-1.08-.98-.82-.79-.69-.67-1.74-1.61-1.77-1.64-.15-.13-.57-.53-.43-.4-1.85-1.71-.65-.6-.25-.23-1.19-1.1-.29-.27-.41-.38-.39-.36-1.1-1.01-1.25-1.15-2.19-2.01-1.45-1.34-3.71-3.4-.29-.27-.2-.19-2.5-2.34-.59-.55-.72-.68-.69-.64-1.39-.87-.64-.53-.34-.31-.17-.15.19-.26.24-.28.26-.27-.45-.2-.94-.46-.74-.37-.37-.24-1.09-.71-2.01-1.32-.72-.49-.7-.47 1.33-.66 2.09-1.06 2.1-1.19 2.61-1.69 2.2-1.63 1.88-1.65 1.62-1.59 4.67-4.7 1.89-1.93.36-.37 1.14-1.16 3.42-3.52 1.27-1.31 1.57-1.64 1.76-1.75.54-.54 1.63-1.61-1.29.07-1.25.02-.46-.03-.57-.04-.62-.17-.46-.26-1.31-.8-.35-.22-.31-.27-.37-.26-.25-.15-.29-.22-.56-.8-.25-.27-1.16-.4-1.38-.28-.83.02-.05.01-.95.07-.89.1-.94.16-1.18.11-2.33.18-2.22.17-.43 0-.03-.55-.22-1.24-.22-.74-.23-.4-.36-.17-.84-.12-2.58-.05-.33-.01-3.77-.11-3.57-.08-1.18 0-.51.06-.49.15-.57.36-.59.44-.86.62-.99.68-.9-3.42-.46-1.79-.35-1.51-.15-1.18-.12-1.06-3.85-.01-1.62.01z" /><path d="m363.69 588.83l.19.05.84.07.52-.11.39-.08.92-.22.03-.01.02.04.25-.04.52-.08.24-.07.09-.03.13-.02.11 0 .03-.02.37-.07.2-.05.14-.03 1.46-.32.89-.23.26-.14.17-.16 2.64-2.52 6.55-3.09-2.8-3.52-2.57.4-5.12-.27 2.19-5.25.52-1.24 1.9-4.58.96-2.29.3-.79.79-1.9.08-.25.25-1.71.32-2.36.24-1.66.1-.69.31-2.35.36-2.34.05-.33.35-4.4.06-1 15.06-.84.39.02.37.1 14.12 6.68.12.06 8.34 1.83-.02-.29 23.39-8.06 1.37-.43.66-1.86.21-.03.13-1.51-.06-1.44.19-3.41.01-.04.23.08.64.07.91.14.3.04.47.05.44-.04.72-.03 1.42.19.36.06.56.23.21.12.85.4 1.08.37.51-.71.42-.39.49-.33.33-.2.47-.13.86-.14.79-.18.54-.05 1.29-.2.65-.12 1.07-.34.53-.04 1.39-.28-.02-.07-.09-.19.46-1.57.06-.46 0-1.65-.04-1.46.06-.44.14-.77.01-.66-.01-1.04.05-.62-.05-.18-.21-.2-2.22-.97-3.55-1.11-2.35-.69-1.92-.57-2.41-.75-4.35-1.3-9.8-3.05 3.8-1.95 1.57-.76.94-.56 6.02-2.91 4.03-2.34 1.32-.76 1.62-.96.15-.08.59-.34.6-.36 1.12-.73.44-.37.77-.53.26-.22.63-.68.38-.58.2-.21.21-.31.2-.19.18-.27.59-.58-.26-.11.69-.86 2.3-3.05.54-.71.65-1.01.32-.51.66-1.03.77-1.17.07-.05.69-.59.27-.22.46-.38.69-.57.41-.16.49-.26.38-.4.2-.3.21-.3.56-.68.25-.39-.33-.72.06-.02.33-.15-.4-.37-.9-.8-1.66-1.46-.24-.25-1.74-1.79-.25-.26-1.6-3.73-.09-.51-.7-4.13-.76-3.78-.26-1.56-.41-2.5-.79-5.82-13.22-2-13.57-1.58-9.12-.81-7.39-.22-.39-.01-5.38-.07-.85-.01-4.67.08-2.12.03-5.33.09-4.42.11-1.97.06-2.01.06-3.37.26-2.68.37-3.88.72-.4-.81-.17-.21-.2-.12-.28-.2-.19-.2-.74-.91-.3-.39-.2-.33-.06-.33.03-.44.08-1.03-.16-.27-.32-.23-.42-.32-.62-.4-.41-.34-.58-.57-.69-.74-.77-.73-.2-.19-.44-.37-.29-.34.04-.3.01-.29.03-.22-.14-.22-.71-.44-.88-.5-.37-.29.01-.27.23-.35.32-.66.1-.58-.32-.57-.51-.35-.69-.23-.37-.15-.24-.25-.6-.44-.14-.38-.34-1.65-.54-2.74-.31-1.25-.28-.49-1.01-1.28-1.66-2.01-1.5-1.78-.14-.48-.02-.07.11-.54.22-.14 1.11-.36 1.58-.55.17-.24.06-.07-.47-.75-2.01-2.35-.49-.56-1.97-2.5-2.07-2.6-.44-.44-.4-.29-.46-.19-.63-.14-.74-.13-.81-.24-.58-.23-.38-.19-.39-.3-.42-.42-.48-.54-.49-.51-.52-.5-.57-.47-.76-.56-.54-.36-.51-.32-.53-.25-.63-.37-1.54-.92 1.66-5.43 1.76-5.6 2.19-7.47.53-1.75.18-.62 1.14-3.73.73-2.37.1-.34 1.14-3.33.55-1.63.94-1.95.05-.1-1.28-.38-1.3-.44-1.77-.61-5.63-1.87-1.85-.62-.35-.12-.34-.11-.8-.24.04-.1.83-2 .33-.83.6-1.38.32-.73-1.53-.13-.99-.07-1.96-.15-1.65-.12-1.92-.13-.8-.05-3.19-.23-.72-.09-1.05-.13-.07.26-2.52-.16-3.03-.13-.9-.05-1.07-.12-1.46-.22-1.47-.28-1.43 2.19-1.95 2.59-.77.91-.69.81-1.68 1.63-3.13 2.57-.89.67-.07.04-1.47.99-3.51 2.14-2.15 1.08-.3.15-.57.29-6.84 2.74-10.67 2.74-.12.03-1.79.24-1.66.22-6.63.87-.55.08-.73.06-2.22.18-3.04.24-5.69.3-3.82.15-1.4.06-3.31.07-2.98.07-2.84.07-6.53.21-2.23.08-6.64.3-1.79.1-2.07 1.53-2.31 1.67-.75.31-1.3.55-1.02.2-2 .24-2.08.61-1.4.9.66 1.22-6.26 2.6-.36.15-.85.45-1.76.91-.88.33-.62.27-.7.34-.61.26-1.06.37-.25.08-.88.38-3.47 1.77-3.61 1.82-1.5.82-.67.32-.8.3-1.45.74-1.25 1.2-.51.4-1.02.87-1.24 1.08.45.42-.28.1-.67.25-2.05.83-4.17 1.72-1.09.42-.94.35-.95.32-.56.21-.58.23-1.22.57-10.54 5.18-2.53 1.24-.66.27.12.29.13.28.1.17.49.32.42.19.51.15-.04.94 0 .68-.25 2.97-.04.5-.14.57.09 1.14-.1.62-1.35-.07-.67 2.91 1.64.08.01.1-.15 1.04-.44.05.04.71.28 1.3.31 2.69.13 1.92.06.03.45.2-.03.11.78 1.21-.22 2.04-.08 2.57-.75.52-1.21.05-.29 1.24-.07 2.35.39 2.97.96 3.33.09.17.07.15 1.36 3.28-.9.04.11.16 1.3 1.73.2-.05 4.81 6.39.05.06 2.9-.65 7.05-1.09 2.16 5.28 2.68 4.72.13.12 5.99-1.34.45-.06.48.03.92.15.03.08.36.74.08.23-.1.25-4.77 6.75-.25.2.21.65-.14.01 2 2.08.13-.03.09.08 1.9 1.97.05.05-2.43.61 1.19 2.14 2.36-.52.18.05 0 .05.01 4.42 0 .67.03 5.71.21 3.37-.16.22.84.29 2.77.77 1.57.41 1.24.28.02-.02.24 0 .74-.03-.87.84.09.34-.23.49.11.2.63-.01.47-.41 2.51-.74 1.71-.51 1.56-.53 1.44-.34 2.79-.81 5.69-1.69.1.18.05.75.07.96.18.39-.05.26.1.31 0 .21-.08.17-.02.61.14 1.19.08.35.12.17 1.06.94.34.35 1.46 1.34 1.87 1.75.18 0 .05.09.25.24.41.44 1.71 1.65.06.32.28.49.71-.18 1.48 1.26.25-.01 2.08-.7.78-.14.31-.21.31-.27.97-1.25.39-.54.41-.49.11-.11.53.26.61.33.93.53.91.55 1.46 1.02 2 1.59.79.32-4.93 3.28-.06-.03-5.24 3.5 8.85 4.9.15.09-17.24 11.85 6.55 4.09 31.61-.11.08 0-.22.41.28.45-.31.59-.06.11-.14.4-.22.26-.45.44.24.75-.01.25.35.48.07.27-.09.49.18.28-.16.31-.23.19-.29.95-.17.26-.03.21.03.2-.14.3-.25.24-.97.38-.88.37-.49.29-.37.34-.77.18-.85.13-.63.28-.13.34-.04.41-.26.44-.08.43.08.28.23.22.28.77-.18.38-.32.2-.81.42 3.37 2.64 1.84-1.43 1.92-1.27.37-.26.71-.46.41-.28.62-.63.46-.46.42-1.78.85-1.13.89-1.13.88-.71.59.12 1.15 1.01.18 1.33.82.54.51.45.55.09.47.4.4.56 1.28 1.74.11 1.09.61.75.09.29 1.19 1.76 2.46 2.12 1.46.6 1.08.05.96-.07.98-.1 2.01-.59 1 .1 1.41.63 1.26.18.88.01.28.06 1.46.31 1.49.46 1.79.57 2.13.64.61.18.06.06-.31 1.08-.38.62-.28.26-.16.21.05.01.62 1.23 8.43-1.96 9.24-2.14-.46-.9-.06-.13-.45-.92 7.7-1.64 5.4-3.19 4.94 1.08 4.9 1.07.18-.01.12-.02-.15.25 3.28.77.49.61-.06 2.02-2.4 2.94-5.16 6.71 3.25.15 2.68.18 1.63.11.7.05.19.01.37.08.48.15 1.48.31 1.92.1 1.85.14 1.24.08 1.64.09 2.32.26.66-.02.55-.04.02.07-.27.17-.23.24-.97 1.77-.08.2.67.33.93.12 1.72-.1 2.33.95 2.08.14.81-.19.43.35 1.06.39 1.19.45z" /><path d="m325.91 361.12l1.09-1.97.04-.07.07-.13.79-1.38.77-1.36.02-.04.68-1.19.58-1 .11-.2.27-.41 1.15-1.75.99-1.51.51-.74 1.01-1.48.35-.47.81-1.09.97-1.15.46-.55.55-.61 1.65-1.86 1.26-1.29.43-.44.26-.26 1.11-.97-.56-.11-.67-.09-.64.01-.78.21-.66.36-.4.21-.65.35-.35.03-.42-.11-1.72-.83-.82-.39-.5-.24-.2-.09-.84-.4-.75-.36-.81-.36-.4-.18-.63-.28-.17-.08-.76-.35-.62-.29-.91-.59-.11-.09-1.13-.93-1.48-.97-.55-.37-.3-.19-1.17-.74-.22-.15-1.25-.79-.7-.46-1.01-.65-2.11-1.34-2-1.21-1.66-1.06-.96.7-1.06.75-.51.31-1.94 1.1-1.19.49-1 .42-.85.34-.82.21-.89-.02-1.97-.11-3.3-.2-1.08-.12-2.85-.43-.59-.05-.89-.07-.68-.01-3.41.29-1.6.11-.98.01-1.05-.1-.62-.21-5.14-2.36-6.45 1.07-3.59.59-2.35.38-1.96.05-1.48-2.14-5.21.99.85 2.18.06.18.55 1.56 1.28 3.52-4.14.8-1.47.27-1.66.32-.59.12-.49 1.72-.33 1.2-.16.45-.34-.07-.79-.1-.72-.01-.88.07-.93.18-.47.15-4.96-.63-.29-.02.19.2-.1.15-3.33 1.45-4.82 2.03-.23.13-.09.14-2.22-.47-.67-.16-3.85-1.14-2.72-.8-.73-.3-.44-.22-.2-.15-2.61-2.19-3.38-2.8-.39-.33-7.76 1.37.84 2.55 1.69 5.14 1.29 3.68.34.92.56 1.49.31.83 1.2 3.08 1.32 3.19 1.36 3.19 1.49 3.49.23.55.73 1.74.58 1.31 2.59 5.96 1.87 4.14 1.46 3.26.56 1.23.73 1.61 2.43 5.18.56 1.14 1.79-.1 6.64-.3 2.23-.08 6.53-.21 2.84-.07 2.98-.07 3.31-.07 1.4-.06 3.82-.15 5.69-.3 3.04-.24 2.22-.18.73-.06.55-.08 6.63-.87 1.66-.22 1.79-.24.12-.03 10.67-2.74 6.84-2.74.57-.29.3-.15 2.15-1.08 3.51-2.14 1.47-.99.07-.04.89-.67 3.13-2.57 1.68-1.63.69-.81.77-.91 1.95-2.59 1.43-2.19.41-.63 1.49-2.53.23-.38.21-.37.7-1.24z" /><path d="m384.73 235.72l1.61-.08 1.36-.04.77-.03.41-.01 2.98-.1.15 0 1.85-.06 2.79-.03 2.02-.02.79-.01 2.96.18 2.19.28 1.57.21.39.05 1.77.32.48.08 1.39.26.83.18 1.46.34 1.22.28 2.01.46 2.47.57.16.04.46.08.05.01.79.15 3.32.72.37-.76 1.2-2.4.23-.47.1-.19.59-1.17.49-.97 1.28-2.57.28-.56.08-.34.15-.63-.21-.59-.22-.59-1.5-2.06-1.02-1.27-1.98-2.48-1.19-1.48-1.53-2-1.5-1.95-.09-.12-1.03-1.32-1.9-2.52-.94-1.13-.76-.92-1.28-1.71-1.29-1.71-.49-.63-4.35-5.58-2.58-3.26-10.58 1.45-11.37 1.57-5.04.65-10.11 1.36-3.04.58-6.58 1.22-1.51.28-2.04.21-7.69.28-9.73.41-1.98.09-2.16.27-2.41.32-3.3.56-.12.03-4.71.94-1.42.39-2.95.78-.37.12-6.55 3.02 3.52 2.05 5.51 3.25 1.41.83 5.18 3.04 5.36 3.15 1.93 1.13 2.05 1.21 1.44.84 1.5.88.17.1 2.11 1.23 1.07.63 1.34.81 1.71 1.02 1.8 1.08.95.57.35.21 1.87 1.12.77.45 1.4.82.07.05.94.57 1.18.71 1.73-.68 1.04-.4 1.37-.27.11-.02 1.01-.2 2.92-.21.76-.06.16 0 1.25-.04 5.04-.16 1.92-.08.93-.04 1.61-.07.15-.01 1.3-.06.75-.03 1.25-.06 2.91-.13 2.65-.12.96-.05.27-.01.78-.03z" /><path d="m250.21 178.9l.98-1.08 1.02-1.12 2.82-3.42 3.07-3.91 2.86-3.73 1.85-2.24.69-.93 1.41-1.74.84.1.85.04.85 0 1.12.02-.25-.09.61-.02-.02-.13-.42-.08-.34-.14.05-.14.6-.31 1.36-.53 1.53-.5.19-.05 1.17-.31 1.32-.33 1.68-.5 1.88-.58.48-.12 1.11-.29.85-.18 1.53-.1.91-.08.94-.27.85-.38.44-.2 1.25-.35 6.2-1.5 2.54-.59 3.9-.68 2.19-.4 2.44-.55 2.11-.57 2.38-.56.92-.16.87-.08 1.22-.09 1.15-.06-.37-2.14-.09-.97-.12-2.72-.18-2.34-.02-.38-.1-1.06-.48-2.94-.17-1.17-.24-2.57-.15-1.73-.18-2.07-.25-2.51-.46-4.65 2.85-2.29.13-1.3.22-1.38.06-.92.03-1.47-.01-.18-.08-.18-.13-.23-.11-.28-.07-.33-.01-.36.09-.33.21-.34.43-.56.79-1.17 1.54-2.3 1.11-1.55.59-.82.93-1.2.87-1.23.23-.36.14-.4.09-.51.08-1.66.06-2.1-.02-.22-.03-.72-.02-.23-.14-2.03-.15-1.21-.1-.78-.6-4.09-.46-2.19-.08-.25-.75-.89-1.76-1.92-.7-.76-2.6-2.79-2.43-2.34-.63-.61-.84-.93-1.14-1.59-.75-1.03-1.2-1.74-.61-.87-.61-1.44-.48-1.07-.37-.58-2.89-4.86-1.28-2.16-.28-.35-.43-.36-.29-.18-1.33-.24-.29-.06-5.3-1.08-1.52-.32-.11.23-1.97-.42-.9-.32-1.03-.32-1.23-.63-2.68-1.31-1.03-.7-.19-.12-.73-.43-1.39-.74-2.19-1.29-1.33-.76-.61-.36-2.25-1.36-.84-.33-.49-.11-.42-.1-1.04-.15-3.58-.19-6.17-.05-1.67-.1-7.08-.33-7.56-.33-3.04-.17-.04.24-2.04.76-.48.21-1.88.72-4.28 1.31-.37.16-2.02.69.71 1.46.19.48-.61.23-5.96 2.22-6.78 2.53-.4-.53.12-.05-.16-.05-3.91 1.57-.36.21-.05.06-1.76 2.42-.32.2-.1.06-7.02 3.31-.12.04-5.13 1.28-8.63 2.04-4.55 1.03-.1.04.01.14.01.23.4.97-5.28 1.87-.38.16-1.53.82-.27.11-2.4.67-.24.06-.27.08-2.64.74-3.33 1.07-3.22 1.02-3.01.96-.13-.03-.8-.92-.12-.01-4.36 1.48.05.06 7.83 7.24-.44.23.68 1.38-.75.27.24.27.31.34.87 1.42.79.96.63.99.49.56.53.85-.06.24-.02.13.03.05-6.29 1.55.04.06 1.42 2.55.98 1.92.05.84-.33.24-5.25 4.11.43.26-.12.02 2.11 2.45 1.23 1.85 1.1 2.14.11-.02.41.94.7 1.8-.2.06.36.07.04.07-.32.1-.29.1-.58.17.27.45-1.03.82-1.53 1.58-.32.21-.1.01-.91.52-1.48.59-.08-.08-2.79.9-1.99.65-1.28.37-3.49.74-2.57.36-.35.05-3.33-.97-.7-.06-5.64.03-.34.27.82 2.75.86 3.07-.15.01-2.2.12-1.73.08-.08-.23-3.47.21-.03.04.39 1.31-.11.1.39 1.7-.07-.04-3.87.38-.06.06-.52.14-.47.13.17.07-.35.02-4 .63-.92.05-.59.13-2.8.7-3.31 1.02-2.52.52 2.39 4.26.37.74 2 2.84.25.02-.05.03-.61.32.07.38-5.97.29-.23.13.65.8 1.56 1.79 1.61 1.84 1.72 2.17.39.5 1.03 1.51 1.56 2.35.17.29.22.36.61.96 1.58 2.32.81 1.21.04.18.01.15.04.02.06 0 .05.11.27.53.15.06.58.75.91 1.19 1.71 2.06 1.92 2.55.21.16.89 1.19-.84-.08-.68-.05-.48-.03-.83-.07-.32-.06-.3-.09-.18 0-.13-.04-.82.12-.61.17-1.42.08-1.18.09-2.04.19-5.36.62-.29.03-2.48.26-.76.06.23.53-.12.01.67 1.65 1.8 2.52 1.49 1.88.04.08-1.04.66-1.05.44-.58.29-.78.62-.02.49.19.04 1.24 1.18 1.26 1.05 1.63 2.17.89.95.63.94.25 1.13.15.14.04.11-.07.09.43 1.62.15.1.62 1.61 1.39 3.52.07.58.01.18.96 2.01 1.31 2.32 1.03 1.45.12-.04.04.06-7.19 1.94-.8.23-.31.1-.21.12-.07.18-.01.12.02.01.26.47.59.88-.06.45 1.64 1.5 2.43 1.04.86.21 1.25.74.02.08.02.25.02.23 1.66 1.31.26.43.8.38.43.36.37.42.64.43.88.8.42 1.23.33.25.71.52.49.98.36.3.13.13.05.04.11.13-.02.05.27 3.66.23 2.84.07.52.06.05.21.03-.05.16 4.61.57.41.11.65.09 1.25.24 1.2.2.54.06.95.02 1.91.06.6.06.52.17.51.3 2.02 1.65.39.34.2.24.76 1.59.35.79.37.79.4.82.59 1.15 1.93 3.97.59 1.14.45.84.41.82.43.43.99.55 1.8.88 1.55.77 1.65.83 2.4 1.16.63.16 1.62.06 1.16.03 1.2.07 1.31.07 3.36.31.44-.03.24-.03.65-.1.79-.13.48-.03.55.01 1.28.1 1.17.08 1.85.25 1.44.19.84.12.66.12.65.2.45.17.29.11 1 .43 1 .39 1.04.45 2.66 1.1.35.08.64-.02.92-.04 1.15-.05 1.8-.07 1.49-.07 1.05-.04.42.08.29.13.23.19 2.43 2.2.21-1.02.46-1.95.53-2.08.44-1.57.57-1.79.67-1.98.82-2.23.32-.79.2-.5.76-1.95.32-.75.2-.47.95-2.05 1.08-2.32 1.03-1.93 1.95-3.69 1.88-3.03 1.84-2.95.79-1.16.47-.69 2.68-3.68.88-1.09 2.5-3.08.75-.9.55-.66.96-1.09 1.05-1.2 4.52-4.81 2.99-2.98 1.2-1.14 3.04-2.76 3.27-2.88.62-.56 2.11-1.84.53-.48 1.83-1.67.65-.62 3.65-3.46.99-1.01 1.49-1.52.86-.94.82-.9z" /><path d="m318.36 233.57l-1.11.74-.55.36-.19.13-1.61 1.08-1.42.91-.89.57-.55.35-.37.26-2.32 1.63-2.42 1.3-1.62.48-.81.24-2 .44 1.31 2.07 1.2 1.84.08.12.32.56.21.36.26.43.44 1.04.13 1.15.02.71.01.6.13 2.04.09 1.48 0 .04.01.04-.01 1.22 0 .63.21 1.62.09.43.5 1.31-.02 1.36.03.56 0 .19-.15 1.01-.11.75-.36.58-.18.29-.62.99-.23.2-1.29 1.14-1.05.59-.77.43-1.38.65-1.82.86-.88.38-.89.38-.28.12-1.02.44-3.38 1.21-3 .53-2.29.14-1.22.07-.2.01-3.01.31-.63.15-.9.23-1.38.34-2.2.87-2.58 1.12-2.33 1.01-1.47.64-.75.32-1.35.58-3.26 1.41-1.14.43-.71.28-.15.06-2.04.78-1.07.42-.96.39-4.79 1.86-.76.26-1.19.4-.44.15-1.38.49-.83.29-2.55.81-1.75.61-1.2.53-1.69.91-3.97 2.34.37.25.21.18.31.29.61.7 1.65 2.04.81 1 .56.73.24.39.11.34.25.62.89 2.13.24.66.25.49.23.38.2.26.47.37 1.38.89 1.02.58.59.22.89.23 1.41.29 1.48.32.65.15.61.25.69.41.72.48 1.56 1.03 1.64 1.11.91.54.66.57.36.43.11.44-.04.64-.09.63.09.77.24.47.37.56.54.62.79.66.87.64.96.66.66.43.18.12.81.65.32.24 1.34 1.45 1.89 2.16 3.55 3.28 2.27 2.06.98.88.27.2 1.08.55 1.44.66 5.14 2.36.62.21 1.05.1.98-.01 1.6-.11 3.41-.29.68.01.89.07.59.05 2.85.43 1.08.12 3.3.2 1.97.11.89.02.82-.21.85-.34 1-.42 1.19-.49 1.94-1.1.51-.31 1.06-.75.96-.7 1.49-1.07.46-.27.35-.13 2.62-.69 2.08-.56.18-.08.65-.36.5-.26.1-.16.23-.52.27-.63.07-.21.02-.05.37-.87.46-.77.04-.06 1.34-1.36 3.12-2.55 1.26-1.04 3.27-2.93 2.3-2.13 1.46-1.47 1.28-1.29.73-.78.53-.69.6-.83.39-.42.88-.65.75-.47.71-.44 1.29-.78 2.72-1.37 3.54-1.55-.95-.73-.3-.25-.52-.44-.14-.12-.76-.81-.66-.86-.25-.46-.47-1.4-.42-1.04-.77-1.59-.45-1.04-.1-.31-.17-.56-.21-.79-.09-.82-.01-.5-.01-.29.08-.68.05-.34.13-.83.12-1.11.03-1.13-.01-.36.19-.39-.12-1.54 0-.1-.01-.14-.03-.31-.01-.14 0-.05-.23-1.75-.05-.49-.07-.61-.08-.78-.18-1.5-.1-1.55-.07-.96-.03-1.55-.02-.46-.09-.99-.11-1.03-.13-.43-.32-1.08-.58-1.42-.35-.88-.28-.7-.08-.21-.33-1.57-.09-.44-.02-1.23-.01-1.28.33-1.76.04-.2.24-.92.51-1.92.17-.36.63-1.32 1.05-2.23.31-.66.59-1.07.12-.22.2-.37.17-.3.04-.08 1.35-2.02.11-.16 1.18-1.54.24-.31.52-.68.36-.46.82-.97.56-.65 1.19-1.1 1.15-.83 1.11-.61-1.18-.71-.94-.57-.07-.05-1.4-.82-.77-.45-1.87-1.12-.35-.21-.95-.57-1.8-1.08-1.71-1.02-1.34-.81-1.07-.63-2.11-1.23-.17-.1-1.5-.88-1.44-.84-2.05-1.21-1.93-1.13-1.45.96-2.04 1.36-.22.16-1.72 1.14-1.35.9-.28.18-.15.1-1.92 1.28-.87.58-2.85 1.89z" /><path d="m460.74 460.48l.79 5.82.41 2.5.26 1.56.76 3.78.7 4.13.09.51 1.6 3.73.25.26 1.74 1.79.24.25 1.66 1.46.9.8.4.37-.33.15.12.11.71.63 2.37 2.12 1.65 1.49 1.5 1.29.5-.22-.02-.02 6.92-3.47.28-.15.4-.03.5-.11 1.12-.32.8-.5.31-.05.07-.11.08-.02.43.1.51.18.49-.21.34-.1.4.02.68.15.79.36 1.92.49.29.07 4.82 1.22.2.01.71.05.35-.02.53-.01.96.02.4.05.25.12.27.08.24.18.19.07.31-.05.34-.16.39-.12.64-.04.5.07.9.18.57.09.02 0-.17.65.02.22.02.01.55.07 2.12.21 1.14.14 1.17.13.8-.03.92.02 1.43-.06.07.45.29-.03 1.23-.04.38.01.23.02.86.21.88.17.12.02.49-.09-4.67-8.88-5.01-9.52-1.01-1.84-1.64-2.97-1.33-2.56-1.84-3.44-1.75-3.28-.37-.71-3.32-6.37-1.18-2.19-.87-1.6 1.18-1.43 1.28-1.9 1.57-3.67.03-.33.29-3.58-.07-.26-1.27-4.71-.03-.1-3.47-5.09-.86-1.26-.61-.72-1.84-2.16-1.46-1.72-.88-1.05-.68-.81-2.15-2.59-.42-.5-2.05-2.48-.73-.87-.34-.41-2.72-3.14-.93-1.07-2.63-3.05-1.78-2.16-1.99-2.43-1.66-3.06-.27-.52-.31-.58-1.66-3.15-.68-1.3-2.66-5.05-2.93.61-4.35 1.06-6.84 1.68-5.34 1.29-.98.21-.61.13-3.6.26-2.17.13-7.52.43-.47-.08-.37-.07-.58.01-1.22.01-4.46.12-1.26.04.18 1.05-.02.29-.02.6-.12 2.46-.09 1.11 0 .19.03 1.09 0 1.23-.3.04-1.21.21-.74.21-.51.27-.38.4-.28.5-1.03 2.04-.52 1.05-.52.99-.33.67-.14.43.05.22.14.36.31.56.01.02.33.45.6.57.28.29.19.28-.05.24-.22.27-.1.05.05.08.06.09-.45.25.05.37.64.44.42.34.23.06 1.67 3.26-.61-.08-.24.36.16.36.06.25.37.51.02.62 0 .8.06.42.11.49.03.14.03.1.21.32.33.27.32.21.23.14.24.19 1.21.98.43.51.72.81.37 1.55.32 1.34 1.44.51.99.35 1.35.93-1.07.47-1.13.36 1.01.88.4.35 1.35 1.17 1 .85.34.29 1.28.77 2.04.98 1.58.77 3.3 1.64.79.41 1.41.72 1.12.55 1.08.18.84.04.87.09.7.27.5.43.24.82.52.93.91.62 1.35-.03 1.33-.32.46.57.96 1.27-6.15 2.33-8.41 3.13-.86.3-4.92 1.74-4.26 1.5-1.85.56-1.27.38-2.78.53-4.64.49-1.63.06-4.12.15 5.38.07.39.01 7.39.22 9.12.81 13.57 1.58 13.22 2z" /></g></g></svg>